<svg width="122" height="28" viewBox="0 0 122 28" fill="none" xmlns="http://www.w3.org/2000/svg">
<path d="M10.7908 23.1273C11.0792 23.1273 11.2828 23.1103 11.4016 23.0764C11.5204 23.0424 11.5967 23.017 11.6307 23V22.491C11.6307 22.1517 11.6222 21.8123 11.6052 21.473C11.6052 21.1337 11.6052 20.7943 11.6052 20.455C11.6052 19.9799 11.6052 19.5133 11.6052 19.0552C11.6222 18.5971 11.6307 18.1221 11.6307 17.63C11.6307 16.9005 11.6307 16.1709 11.6307 15.4413C11.6307 14.7118 11.6222 13.9907 11.6052 13.2781V5.0832C11.1132 4.9814 10.5533 4.9305 9.9255 4.9305C9.28077 4.9305 8.66997 4.9814 8.0931 5.0832C8.07613 5.50737 8.05917 5.90608 8.0422 6.27935C8.0422 6.63565 8.0422 6.99195 8.0422 7.34825C8.0422 7.95905 8.05068 8.56137 8.06765 9.1552C8.10158 9.73207 8.11855 10.3598 8.11855 11.0385C8.11855 11.3269 8.10158 11.6238 8.06765 11.9292C8.03372 12.2346 7.9913 12.4043 7.9404 12.4382C7.92343 12.4382 7.86405 12.3449 7.76225 12.1583C7.66045 11.9547 7.5332 11.7172 7.3805 11.4457C7.24477 11.1573 7.09207 10.8434 6.9224 10.504C6.75273 10.1477 6.59155 9.8169 6.43885 9.5115C6.28615 9.18913 6.15042 8.90918 6.03165 8.67165C5.91288 8.43412 5.83653 8.27293 5.8026 8.1881C5.6499 7.8318 5.51417 7.54336 5.3954 7.3228C5.2936 7.08526 5.1918 6.87318 5.09 6.68655C5.00517 6.49992 4.91185 6.3048 4.81005 6.1012C4.70825 5.8976 4.59797 5.6431 4.4792 5.3377C4.4792 5.30377 4.38588 5.26983 4.19925 5.2359C4.02958 5.20197 3.82598 5.17652 3.58845 5.15955C3.35092 5.12562 3.11338 5.10865 2.87585 5.10865C2.63832 5.09168 2.46865 5.0832 2.36685 5.0832C2.16325 5.0832 1.95965 5.09168 1.75605 5.10865C1.56942 5.12562 1.39127 5.15107 1.2216 5.185C1.13677 6.27087 1.07738 7.39067 1.04345 8.5444C1.00952 9.68117 0.99255 10.8349 0.99255 12.0056C0.99255 13.6005 1.00103 15.1275 1.018 16.5866C1.05193 18.0457 1.0689 19.5812 1.0689 21.193V22.9745C1.45913 22.9745 1.85785 23 2.26505 23.0509C2.68922 23.1018 3.1049 23.1273 3.5121 23.1273C3.69873 23.1273 3.88537 23.1188 4.072 23.1018C4.25863 23.0848 4.44527 23.0509 4.6319 23C4.61493 22.7116 4.60645 22.3892 4.60645 22.0329C4.60645 21.6596 4.60645 21.2779 4.60645 20.8876C4.60645 20.175 4.60645 19.437 4.60645 18.6735C4.62342 17.91 4.64038 17.2144 4.65735 16.5866C4.67432 15.9588 4.69128 15.4413 4.70825 15.0341C4.74218 14.6269 4.76763 14.4233 4.7846 14.4233C4.81853 14.4233 4.86095 14.5082 4.91185 14.6778C4.97972 14.8305 5.04758 15.0002 5.11545 15.1868L5.36995 15.9503C5.76018 17.0362 6.22677 18.173 6.7697 19.3606C7.3296 20.5313 7.8895 21.7445 8.4494 23C8.78873 23 9.17897 23.017 9.6201 23.0509C10.0612 23.1018 10.4515 23.1273 10.7908 23.1273ZM13.8205 11.3948C13.7696 11.5814 13.6933 11.8359 13.5915 12.1583C13.4897 12.4637 13.4303 12.7097 13.4133 12.8963C13.3624 13.2187 13.3285 13.5326 13.3115 13.838C13.2946 14.1264 13.2861 14.4233 13.2861 14.7287C13.337 15.2886 13.3455 15.9079 13.3115 16.5866C13.2946 17.2653 13.3031 17.9439 13.337 18.6226C13.3709 19.2843 13.4727 19.9205 13.6424 20.5313C13.8121 21.1421 14.1259 21.6511 14.584 22.0583C15.1779 22.6522 15.9074 23.0255 16.7727 23.1782C17.2478 23.1782 17.7738 23.1951 18.3506 23.2291C18.9275 23.28 19.4874 23.28 20.0303 23.2291C20.5733 23.1951 21.0738 23.0933 21.5319 22.9236C22.007 22.754 22.3887 22.4655 22.6771 22.0583C22.8468 21.8887 22.9741 21.5748 23.0589 21.1167C23.1607 20.6586 23.237 20.1411 23.2879 19.5642C23.3558 18.9874 23.3982 18.3851 23.4152 17.7573C23.4491 17.1295 23.4746 16.5696 23.4915 16.0776C23.4746 15.5177 23.4576 14.9748 23.4406 14.4488C23.4237 13.9059 23.3813 13.4138 23.3134 12.9727C23.2455 12.5146 23.1437 12.1159 23.008 11.7765C22.8723 11.4372 22.6856 11.1912 22.4481 11.0385C22.0918 10.6992 21.6676 10.4447 21.1756 10.275C20.6836 10.0884 20.1661 9.97808 19.6231 9.94415C19.2668 9.91022 18.9275 9.91022 18.6051 9.94415C18.2997 9.96112 17.9774 9.95263 17.638 9.9187C17.2308 9.9187 16.8236 9.94415 16.4164 9.99505C16.0262 10.0459 15.6529 10.1393 15.2966 10.275C14.9573 10.3938 14.6519 10.5465 14.3804 10.7331C14.1259 10.9197 13.9393 11.1403 13.8205 11.3948ZM17.0018 14.3979C17.2224 14.1264 17.5108 13.9398 17.8671 13.838C18.5288 13.6853 19.0632 13.7447 19.4704 14.0161C19.8776 14.2876 20.1237 14.7203 20.2085 15.3141C20.3103 15.8061 20.3357 16.3321 20.2848 16.892C20.2509 17.4349 20.2 17.9779 20.1321 18.5208C20.0303 18.945 19.8352 19.2249 19.5468 19.3606C19.3262 19.4794 19.0463 19.5642 18.7069 19.6151C18.3676 19.6491 18.0368 19.6321 17.7144 19.5642C17.409 19.4794 17.146 19.3352 16.9254 19.1316C16.7049 18.911 16.6031 18.6056 16.62 18.2154C16.654 17.6216 16.6709 17.0617 16.6709 16.5357C16.6709 15.9928 16.7049 15.4498 16.7727 14.9069C16.8236 14.6354 16.9 14.4658 17.0018 14.3979ZM28.4859 11.1657C28.4859 11.047 28.4774 10.9621 28.4605 10.9112C28.4605 10.8603 28.4605 10.8179 28.4605 10.784C28.4605 10.7331 28.4605 10.6737 28.4605 10.6058C28.4605 10.538 28.4605 10.4362 28.4605 10.3004C28.4605 10.2665 28.3841 10.2495 28.2314 10.2495C28.0957 10.2326 27.926 10.2326 27.7224 10.2495C27.5358 10.2665 27.3491 10.2835 27.1625 10.3004C26.9928 10.3174 26.8741 10.3259 26.8062 10.3259C26.6026 10.3429 26.4329 10.3598 26.2972 10.3768C26.1615 10.3768 26.0342 10.3768 25.9155 10.3768C25.7967 10.3768 25.6694 10.3768 25.5337 10.3768C25.398 10.3598 25.2283 10.3429 25.0247 10.3259C24.9568 12.5655 24.9399 14.7287 24.9738 16.8156C25.0247 18.9025 25.0502 20.9894 25.0502 23.0764C25.4574 23.0424 25.8052 23.0339 26.0936 23.0509C26.399 23.0679 26.679 23.0764 26.9335 23.0764C27.188 23.0933 27.434 23.0933 27.6715 23.0764C27.909 23.0594 28.172 23.0085 28.4605 22.9236V22.8218C28.4605 22.1941 28.452 21.6087 28.435 21.0658C28.435 20.5059 28.435 19.963 28.435 19.437C28.435 18.8941 28.4265 18.3596 28.4096 17.8336C28.3926 17.3077 28.3756 16.7478 28.3587 16.1539C28.3417 15.6789 28.4096 15.3141 28.5623 15.0596C28.715 14.8051 28.927 14.6185 29.1985 14.4997C29.4869 14.3809 29.8178 14.3215 30.1911 14.3215C30.5813 14.3215 31.0055 14.347 31.4636 14.3979C31.4805 14.3979 31.5908 14.4149 31.7944 14.4488C32.015 14.4827 32.2271 14.5251 32.4307 14.576C32.5155 14.61 32.6003 14.6439 32.6852 14.6778C32.787 14.6948 32.8803 14.7203 32.9651 14.7542L33.1942 14.8305C33.1772 14.576 33.1687 14.3046 33.1687 14.0161C33.1687 13.7277 33.1687 13.4138 33.1687 13.0745C33.1687 12.7182 33.1687 12.3195 33.1687 11.8783C33.1857 11.4372 33.1942 10.9282 33.1942 10.3513C33.1942 10.3344 33.0669 10.3259 32.8124 10.3259C32.5749 10.3089 32.278 10.3089 31.9217 10.3259C31.5654 10.3429 31.1836 10.3853 30.7764 10.4531C30.3692 10.504 30.0044 10.5804 29.6821 10.6822C29.4445 10.767 29.1985 10.8603 28.944 10.9621C28.7065 11.0639 28.5538 11.1318 28.4859 11.1657ZM49.55 5.26135C48.9901 5.21045 48.4217 5.185 47.8448 5.185C47.5394 5.185 47.234 5.19348 46.9286 5.21045C46.6232 5.22742 46.3263 5.26983 46.0379 5.3377V5.36315C45.97 6.10968 45.9191 6.95801 45.8852 7.90815C45.8682 8.84131 45.8427 9.79993 45.8088 10.784C45.7918 11.7681 45.7664 12.7352 45.7325 13.6853C45.6985 14.6185 45.6476 15.4498 45.5798 16.1794C45.478 15.9249 45.3592 15.5347 45.2235 15.0087C45.1047 14.4827 44.9774 13.9483 44.8417 13.4053C44.7229 12.8624 44.5957 12.3789 44.46 11.9547C44.3412 11.5136 44.2479 11.2675 44.18 11.2166C44.163 11.2336 44.1546 11.2506 44.1546 11.2675C44.1546 11.2845 44.1461 11.31 44.1291 11.3439C43.9425 12.1074 43.7558 12.8624 43.5692 13.6089C43.3995 14.3385 43.2044 15.085 42.9839 15.8485C42.7972 15.119 42.6785 14.2961 42.6276 13.3799C42.5767 12.4637 42.5512 11.5305 42.5512 10.5804C42.5512 9.63027 42.5512 8.68862 42.5512 7.75545C42.5512 6.82228 42.5173 5.98243 42.4494 5.2359C42.144 5.21893 41.8216 5.20196 41.4823 5.185C41.143 5.16803 40.8036 5.15955 40.4643 5.15955C40.1759 5.15955 39.8874 5.17652 39.599 5.21045C39.3275 5.22742 39.0646 5.25287 38.8101 5.2868V5.31225C38.861 8.24748 39.0815 11.1827 39.4718 14.1179C39.862 17.0532 40.2607 19.9714 40.6679 22.8727H40.6934C41.0666 22.9236 41.389 22.9491 41.6605 22.9491C41.898 22.9491 42.1101 22.9406 42.2967 22.9236C42.4833 22.8897 42.6869 22.8558 42.9075 22.8218C43.0432 22.6013 43.162 22.2874 43.2638 21.8802C43.3656 21.473 43.4674 21.0573 43.5692 20.6331C43.671 20.192 43.7728 19.7848 43.8746 19.4115C43.9934 19.0213 44.1291 18.7498 44.2818 18.5971H44.3073C44.46 18.8347 44.5957 19.157 44.7145 19.5642C44.8332 19.9714 44.952 20.3956 45.0708 20.8367C45.1895 21.2609 45.2998 21.6681 45.4016 22.0583C45.5204 22.4316 45.6561 22.72 45.8088 22.9236H46.1142H47.0304C47.2001 22.9236 47.3528 22.9236 47.4885 22.9236C47.6412 22.9236 47.7769 22.9067 47.8957 22.8727C48.1332 19.9205 48.4047 16.9853 48.7101 14.067C49.0325 11.1488 49.3209 8.22203 49.5754 5.2868L49.55 5.26135ZM60.9044 10.3259C60.3615 10.292 59.878 10.2665 59.4538 10.2495C59.0466 10.2326 58.6988 10.2156 58.4103 10.1986C58.3594 10.1986 58.2661 10.1986 58.1304 10.1986C57.9947 10.1986 57.8589 10.1986 57.7232 10.1986C57.5875 10.1817 57.4602 10.1817 57.3414 10.1986C57.2396 10.1986 57.1887 10.2071 57.1887 10.2241C57.1887 10.4277 57.1633 10.6313 57.1124 10.8349C57.0785 11.0215 57.07 11.2506 57.0869 11.522C56.9682 11.2336 56.824 11.013 56.6543 10.8603C56.4846 10.6907 56.2895 10.5719 56.0689 10.504C55.8484 10.4192 55.6024 10.3768 55.3309 10.3768C55.0764 10.3598 54.7964 10.3513 54.491 10.3513C53.8972 10.3683 53.3373 10.5295 52.8113 10.8349C52.2854 11.1233 51.8273 11.5305 51.437 12.0565C51.0638 12.5655 50.7669 13.1763 50.5463 13.8889C50.3257 14.6015 50.2154 15.382 50.2154 16.2303C50.2154 16.909 50.2833 17.647 50.419 18.4444C50.5717 19.2419 50.8008 19.9799 51.1062 20.6586C51.4116 21.3373 51.7933 21.9056 52.2514 22.3637C52.7265 22.8218 53.2949 23.0509 53.9566 23.0509C54.5504 23.0509 55.1527 22.9067 55.7635 22.6182C56.3913 22.3298 56.9088 21.982 57.316 21.5748C57.316 21.7445 57.299 21.8887 57.2651 22.0074C57.2312 22.1262 57.2142 22.2789 57.2142 22.4655C57.2142 22.6013 57.2312 22.72 57.2651 22.8218C57.316 22.9236 57.4008 22.9915 57.5196 23.0255C57.7062 23.0255 57.8844 23.017 58.054 23C58.2407 22.9661 58.4273 22.9491 58.6139 22.9491C58.8854 22.9491 59.1569 22.9661 59.4283 23C59.7168 23.017 59.9967 23.0255 60.2682 23.0255H60.5736C60.7772 22.9915 60.879 22.8643 60.879 22.6437C60.896 22.4231 60.9044 22.2026 60.9044 21.982C61.0232 20.1666 61.0487 18.3766 60.9808 16.612C60.9129 14.8305 60.9044 13.0236 60.9553 11.1912V10.9367C60.9553 10.8349 60.9469 10.7331 60.9299 10.6313C60.9299 10.5295 60.9214 10.4277 60.9044 10.3259ZM53.4985 15.3904C53.5833 14.9663 53.8209 14.593 54.2111 14.2706C54.6183 13.9313 55.1697 13.7616 55.8653 13.7616C56.2216 13.7616 56.4846 13.7871 56.6543 13.838C56.8409 13.8889 56.9682 14.0077 57.036 14.1943C57.1209 14.3809 57.1633 14.6524 57.1633 15.0087C57.1803 15.348 57.1887 15.8146 57.1887 16.4084C57.1887 16.8835 57.1803 17.3162 57.1633 17.7064C57.1633 18.0797 57.1124 18.402 57.0106 18.6735C56.9258 18.928 56.7731 19.1316 56.5525 19.2843C56.3489 19.42 56.035 19.4879 55.6108 19.4879C54.8982 19.4879 54.3383 19.2249 53.9311 18.6989C53.5409 18.156 53.3458 17.5028 53.3458 16.7393C53.3458 16.5187 53.3543 16.2982 53.3712 16.0776C53.3882 15.8401 53.4306 15.611 53.4985 15.3904ZM65.6785 10.3513C65.1356 10.2835 64.5248 10.275 63.8461 10.3259C63.1674 10.3598 62.5227 10.3429 61.9119 10.275C62.4379 12.1922 62.9723 14.1773 63.5152 16.2303C64.0582 18.2833 64.5078 20.3362 64.8641 22.3892C64.9489 22.9491 64.898 23.3563 64.7114 23.6108C64.5417 23.8653 64.2872 24.0265 63.9479 24.0944C63.6086 24.1792 63.2183 24.2046 62.7772 24.1707C62.353 24.1368 61.9373 24.1198 61.5301 24.1198C61.4453 24.5949 61.4114 25.1463 61.4283 25.7741C61.4283 26.4188 61.5132 26.9957 61.6828 27.5047C63.125 27.5895 64.3381 27.4792 65.3222 27.1738C66.3232 26.8684 67.1546 26.4188 67.8163 25.825C68.495 25.2481 69.0379 24.5609 69.4451 23.7635C69.8523 22.9661 70.1831 22.1262 70.4376 21.2439C70.7091 20.3617 70.9297 19.4624 71.0993 18.5462C71.286 17.63 71.4896 16.7563 71.7101 15.9249C71.9137 15.0426 72.1173 14.1434 72.3209 13.2272C72.5415 12.294 72.7875 11.3184 73.059 10.3004C72.3464 10.2495 71.6932 10.2411 71.0993 10.275C70.5055 10.3089 69.9202 10.3174 69.3433 10.3004C69.1397 10.8094 68.97 11.4796 68.8343 12.311C68.6986 13.1424 68.5713 14.0077 68.4525 14.9069C68.3507 15.8061 68.2405 16.6714 68.1217 17.5028C68.0029 18.3342 67.8502 19.0043 67.6636 19.5133C67.477 19.0043 67.2903 18.3596 67.1037 17.5791C66.9171 16.7817 66.7389 15.9503 66.5692 15.085C66.3996 14.2197 66.2384 13.3714 66.0857 12.54C65.933 11.6917 65.7973 10.9621 65.6785 10.3513ZM84.091 14.1943C84.091 13.2781 83.9213 12.4552 83.582 11.7256C83.2426 10.9791 82.6743 10.4362 81.8768 10.0968C81.4357 9.99505 80.9521 9.9187 80.4262 9.8678C79.9002 9.79993 79.3742 9.766 78.8483 9.766C78.3223 9.766 77.8218 9.79145 77.3467 9.84235C76.8886 9.89325 76.4984 9.96112 76.176 10.0459C75.3447 10.2665 74.6999 10.6907 74.2418 11.3184C73.8007 11.9462 73.5632 12.6334 73.5292 13.3799C73.5123 14.1095 73.7159 14.8221 74.14 15.5177C74.5812 16.1964 75.2768 16.6969 76.2269 17.0192C76.702 17.2228 77.1855 17.3671 77.6776 17.4519C78.1696 17.5367 78.6107 17.6385 79.001 17.7573C79.3912 17.8591 79.7051 18.0118 79.9426 18.2154C80.1802 18.419 80.2735 18.7244 80.2226 19.1316C80.2395 19.6236 80.0868 19.963 79.7645 20.1496C79.4421 20.3362 79.0858 20.4126 78.6956 20.3786C78.3053 20.3277 77.9321 20.1835 77.5758 19.946C77.2364 19.6915 77.0583 19.3691 77.0413 18.9789C76.5154 18.9789 75.8961 18.9704 75.1835 18.9534C74.4709 18.9195 73.8346 18.9365 73.2747 19.0043V19.0552V19.1316C73.2747 19.8103 73.4105 20.4211 73.6819 20.964C73.9704 21.5069 74.3606 21.965 74.8526 22.3383C75.3616 22.7116 75.9639 22.9915 76.6596 23.1782C77.3552 23.3648 78.1357 23.4411 79.001 23.4072C79.985 23.4242 80.8928 23.2545 81.7241 22.8982C82.5555 22.5419 83.1663 21.9481 83.5565 21.1167C83.8789 20.1835 83.9977 19.4031 83.9128 18.7753C83.828 18.1306 83.5989 17.5028 83.2257 16.892C82.8354 16.383 82.2246 16.0182 81.3933 15.7976C80.5619 15.5601 79.6712 15.3735 78.721 15.2377C78.3308 15.102 78.0339 14.8984 77.8303 14.6269C77.6267 14.3555 77.5249 14.084 77.5249 13.8125C77.5249 13.5411 77.6182 13.2951 77.8048 13.0745C78.0084 12.837 78.3053 12.6843 78.6956 12.6164C78.9161 12.5994 79.1367 12.6334 79.3573 12.7182C79.5948 12.7861 79.7984 12.8963 79.9681 13.049C80.1547 13.2017 80.2904 13.3799 80.3753 13.5835C80.4771 13.7871 80.5025 13.9907 80.4516 14.1943C81.0285 14.3131 81.6393 14.364 82.284 14.347C82.9457 14.33 83.548 14.2791 84.091 14.1943Z" fill="white"/>
<mask id="mask0_564_681" style="mask-type:alpha" maskUnits="userSpaceOnUse" x="101" y="7" width="14" height="14">
<circle cx="112.818" cy="16.9934" r="0.762546" fill="url(#paint0_linear_564_681)"/>
<circle cx="111.039" cy="15.8495" r="0.635455" fill="url(#paint1_linear_564_681)"/>
<circle cx="105.193" cy="15.8495" r="0.635455" fill="url(#paint2_linear_564_681)"/>
<circle cx="108.116" cy="10.7658" r="0.635455" fill="url(#paint3_linear_564_681)"/>
<circle cx="109.514" cy="14.9598" r="0.508364" fill="url(#paint4_linear_564_681)"/>
<circle cx="106.845" cy="14.9598" r="0.508364" fill="url(#paint5_linear_564_681)"/>
<circle cx="108.116" cy="12.6722" r="0.508364" fill="url(#paint6_linear_564_681)"/>
<circle cx="108.116" cy="14.0702" r="0.381273" fill="url(#paint7_linear_564_681)"/>
<circle cx="110.785" cy="18.6455" r="0.762546" fill="url(#paint8_linear_564_681)"/>
<circle cx="102.558" cy="14.0921" r="0.762546" transform="rotate(117.901 102.558 14.0921)" fill="url(#paint9_linear_564_681)"/>
<circle r="0.762546" transform="matrix(0.467938 0.883761 0.883761 -0.467938 113.551 14.0992)" fill="url(#paint10_linear_564_681)"/>
<circle cx="108.116" cy="19.281" r="0.762546" fill="url(#paint11_linear_564_681)"/>
<circle cx="103.245" cy="11.4361" r="0.762546" transform="rotate(117.901 103.245 11.4361)" fill="url(#paint12_linear_564_681)"/>
<circle r="0.762546" transform="matrix(0.467938 0.883761 0.883761 -0.467938 112.863 11.4432)" fill="url(#paint13_linear_564_681)"/>
<circle cx="105.447" cy="18.6455" r="0.762546" fill="url(#paint14_linear_564_681)"/>
<circle cx="105.056" cy="9.37482" r="0.762546" transform="rotate(117.901 105.056 9.37482)" fill="url(#paint15_linear_564_681)"/>
<circle r="0.762546" transform="matrix(0.467938 0.883761 0.883761 -0.467938 111.053 9.38184)" fill="url(#paint16_linear_564_681)"/>
<circle cx="103.413" cy="16.9934" r="0.762546" fill="url(#paint17_linear_564_681)"/>
<circle cx="108.116" cy="8.73239" r="0.762546" fill="url(#paint18_linear_564_681)"/>
</mask>
<g mask="url(#mask0_564_681)">
<circle cx="108.136" cy="14.0702" r="8.00673" fill="#FAFAFA"/>
</g>
<mask id="mask1_564_681" style="mask-type:alpha" maskUnits="userSpaceOnUse" x="95" y="0" width="27" height="28">
<path fill-rule="evenodd" clip-rule="evenodd" d="M108.238 3.84002C109.051 3.84002 109.709 3.18147 109.709 2.36911C109.709 1.55674 109.051 0.898193 108.238 0.898193C107.426 0.898193 106.767 1.55674 106.767 2.36911C106.767 3.18147 107.426 3.84002 108.238 3.84002ZM106.938 4.37861C106.593 4.72342 106.4 5.19109 106.4 5.67872H108.238L110.077 5.67872C110.077 5.19109 109.883 4.72342 109.538 4.37861C109.194 4.03379 108.726 3.84008 108.238 3.84008C107.751 3.84008 107.283 4.03379 106.938 4.37861Z" fill="#C4C4C4"/>
<path fill-rule="evenodd" clip-rule="evenodd" d="M108.238 24.1601C107.426 24.1601 106.767 24.8186 106.767 25.631C106.767 26.4434 107.426 27.1019 108.238 27.1019C109.051 27.1019 109.709 26.4434 109.709 25.631C109.709 24.8186 109.051 24.1601 108.238 24.1601ZM109.538 23.6215C109.883 23.2767 110.077 22.809 110.077 22.3214H108.238L106.4 22.3214C106.4 22.809 106.593 23.2767 106.938 23.6215C107.283 23.9663 107.751 24.16 108.238 24.16C108.726 24.16 109.194 23.9663 109.538 23.6215Z" fill="#C4C4C4"/>
<path fill-rule="evenodd" clip-rule="evenodd" d="M113.325 5.46914C114.029 5.87436 114.927 5.63319 115.333 4.93006C115.74 4.22654 115.499 3.32694 114.795 2.92076C114.091 2.51457 113.192 2.75562 112.786 3.45915C112.38 4.16226 112.62 5.06122 113.323 5.46774C112.901 5.22448 112.399 5.15865 111.929 5.28474C111.458 5.41095 111.056 5.71911 110.812 6.14142L112.405 7.06074L113.997 7.98006C114.241 7.55775 114.307 7.05589 114.181 6.58486C114.055 6.1143 113.747 5.71303 113.325 5.46914Z" fill="#C4C4C4"/>
<path fill-rule="evenodd" clip-rule="evenodd" d="M103.144 22.8947C102.442 22.4952 101.548 22.7371 101.143 23.4378C100.737 24.1414 100.978 25.041 101.682 25.4471C102.385 25.8533 103.285 25.6123 103.691 24.9088C104.096 24.208 103.858 23.3126 103.161 22.9042C103.581 23.1442 104.08 23.2085 104.548 23.0832C105.019 22.957 105.42 22.6488 105.664 22.2265L104.072 21.3072L102.48 20.3878C102.236 20.8102 102.17 21.312 102.296 21.783C102.421 22.251 102.726 22.6504 103.144 22.8947Z" fill="#C4C4C4"/>
<path fill-rule="evenodd" clip-rule="evenodd" d="M116.96 18.8627C116.561 19.565 116.803 20.4591 117.504 20.8637C118.207 21.2699 119.107 21.0288 119.513 20.3253C119.919 19.6218 119.678 18.7222 118.975 18.316C118.274 17.9114 117.378 18.149 116.97 18.8462C117.21 18.4256 117.274 17.9272 117.149 17.4592C117.023 16.9882 116.715 16.5866 116.292 16.3428L115.373 17.9351L114.454 19.5274C114.876 19.7712 115.378 19.8373 115.849 19.7111C116.317 19.5857 116.716 19.2808 116.96 18.8627Z" fill="#C4C4C4"/>
<path fill-rule="evenodd" clip-rule="evenodd" d="M99.5121 8.77666C99.9172 8.07332 99.676 7.17459 98.9729 6.76866C98.2694 6.36248 97.3698 6.60352 96.9636 7.30705C96.5575 8.01058 96.7985 8.91018 97.502 9.31636C98.2051 9.72228 99.104 9.4818 99.5105 8.77932C99.2673 9.20136 99.2015 9.70268 99.3276 10.1732C99.4538 10.6442 99.762 11.0458 100.184 11.2897L101.104 9.69734L102.023 8.10503C101.601 7.86121 101.099 7.79513 100.628 7.92134C100.157 8.04742 99.756 8.35505 99.5121 8.77666Z" fill="#C4C4C4"/>
<path fill-rule="evenodd" clip-rule="evenodd" d="M116.634 8.74189C117.04 9.44542 117.939 9.68647 118.643 9.28029C119.346 8.8741 119.588 7.97451 119.181 7.27098C118.775 6.56745 117.876 6.3264 117.172 6.73259C116.469 7.13877 116.227 8.03837 116.634 8.74189ZM115.517 7.88523C115.046 7.75902 114.544 7.82509 114.122 8.06891L115.041 9.66122L115.961 11.2535C116.383 11.0097 116.691 10.6081 116.817 10.1371C116.943 9.66608 116.877 9.16421 116.634 8.7419C116.39 8.31959 115.988 8.01144 115.517 7.88523Z" fill="#C4C4C4"/>
<path fill-rule="evenodd" clip-rule="evenodd" d="M99.1057 18.8875C98.6987 18.1863 97.8007 17.9466 97.0982 18.3521C96.3947 18.7583 96.1536 19.6579 96.5598 20.3614C96.966 21.065 97.8656 21.306 98.5691 20.8998C99.2716 20.4943 99.513 19.5968 99.1093 18.8937C99.3533 19.3144 99.7541 19.6214 100.224 19.7473C100.695 19.8735 101.197 19.8074 101.619 19.5636L100.7 17.9713L99.7805 16.379C99.3582 16.6228 99.0501 17.0244 98.9239 17.4954C98.798 17.9653 98.8634 18.4658 99.1057 18.8875Z" fill="#C4C4C4"/>
<path fill-rule="evenodd" clip-rule="evenodd" d="M113.324 22.5317C112.621 22.9379 112.38 23.8375 112.786 24.541C113.192 25.2445 114.091 25.4856 114.795 25.0794C115.499 24.6732 115.74 23.7736 115.333 23.0701C114.927 22.3665 114.028 22.1255 113.324 22.5317ZM114.181 21.4152C114.307 20.9442 114.241 20.4423 113.997 20.02L112.405 20.9393L110.812 21.8586C111.056 22.2809 111.458 22.5891 111.929 22.7153C112.4 22.8415 112.902 22.7755 113.324 22.5316C113.746 22.2878 114.054 21.8862 114.181 21.4152Z" fill="#C4C4C4"/>
<path fill-rule="evenodd" clip-rule="evenodd" d="M103.16 5.09625C103.858 4.68798 104.096 3.79235 103.691 3.09138C103.285 2.38785 102.385 2.1468 101.682 2.55299C100.978 2.95917 100.737 3.85877 101.143 4.56229C101.548 5.26328 102.443 5.50512 103.145 5.10506C102.727 5.3493 102.421 5.74889 102.296 6.21706C102.17 6.68809 102.236 7.18996 102.48 7.61226L104.072 6.69294L105.664 5.77362C105.42 5.35131 105.019 5.04316 104.548 4.91695C104.08 4.7915 103.581 4.85602 103.16 5.09625Z" fill="#C4C4C4"/>
<path fill-rule="evenodd" clip-rule="evenodd" d="M118.167 13.7686C118.167 14.5809 118.826 15.2395 119.638 15.2395C120.45 15.2395 121.109 14.5809 121.109 13.7686C121.109 12.9562 120.45 12.2977 119.638 12.2977C118.826 12.2977 118.167 12.9562 118.167 13.7686ZM117.628 12.4685C117.284 12.1237 116.816 11.93 116.328 11.93L116.328 13.7686L116.328 15.6073C116.816 15.6073 117.284 15.4135 117.628 15.0687C117.973 14.7239 118.167 14.2562 118.167 13.7686C118.167 13.281 117.973 12.8133 117.628 12.4685Z" fill="#C4C4C4"/>
<path fill-rule="evenodd" clip-rule="evenodd" d="M97.9418 13.8637C97.9418 13.0513 97.2833 12.3928 96.4709 12.3928C95.6586 12.3928 95 13.0513 95 13.8637C95 14.676 95.6586 15.3346 96.4709 15.3346C97.2833 15.3346 97.9418 14.676 97.9418 13.8637ZM98.4804 15.1638C98.8252 15.5086 99.2929 15.7023 99.7805 15.7023L99.7805 13.8637L99.7805 12.025C99.2929 12.025 98.8252 12.2187 98.4804 12.5635C98.1356 12.9084 97.9419 13.376 97.9419 13.8637C97.9419 14.3513 98.1356 14.819 98.4804 15.1638Z" fill="#C4C4C4"/>
</mask>
<g mask="url(#mask1_564_681)">
<circle cx="108.238" cy="14.1364" r="13.9737" fill="#FAFAFA"/>
</g>
<defs>
<linearGradient id="paint0_linear_564_681" x1="112.818" y1="16.2308" x2="112.818" y2="17.7559" gradientUnits="userSpaceOnUse">
<stop stop-color="#FF9595"/>
<stop offset="1" stop-color="#ED3C3C"/>
</linearGradient>
<linearGradient id="paint1_linear_564_681" x1="111.039" y1="15.2141" x2="111.039" y2="16.485" gradientUnits="userSpaceOnUse">
<stop stop-color="#FF9595"/>
<stop offset="1" stop-color="#ED3C3C"/>
</linearGradient>
<linearGradient id="paint2_linear_564_681" x1="105.193" y1="15.2141" x2="105.193" y2="16.485" gradientUnits="userSpaceOnUse">
<stop stop-color="#FF9595"/>
<stop offset="1" stop-color="#ED3C3C"/>
</linearGradient>
<linearGradient id="paint3_linear_564_681" x1="108.116" y1="10.1304" x2="108.116" y2="11.4013" gradientUnits="userSpaceOnUse">
<stop stop-color="#FF9595"/>
<stop offset="1" stop-color="#ED3C3C"/>
</linearGradient>
<linearGradient id="paint4_linear_564_681" x1="109.514" y1="14.4515" x2="109.514" y2="15.4682" gradientUnits="userSpaceOnUse">
<stop stop-color="#FF9595"/>
<stop offset="1" stop-color="#ED3C3C"/>
</linearGradient>
<linearGradient id="paint5_linear_564_681" x1="106.845" y1="14.4515" x2="106.845" y2="15.4682" gradientUnits="userSpaceOnUse">
<stop stop-color="#FF9595"/>
<stop offset="1" stop-color="#ED3C3C"/>
</linearGradient>
<linearGradient id="paint6_linear_564_681" x1="108.116" y1="12.1639" x2="108.116" y2="13.1806" gradientUnits="userSpaceOnUse">
<stop stop-color="#FF9595"/>
<stop offset="1" stop-color="#ED3C3C"/>
</linearGradient>
<linearGradient id="paint7_linear_564_681" x1="108.116" y1="13.6889" x2="108.116" y2="14.4514" gradientUnits="userSpaceOnUse">
<stop stop-color="#FF9595"/>
<stop offset="1" stop-color="#ED3C3C"/>
</linearGradient>
<linearGradient id="paint8_linear_564_681" x1="110.785" y1="17.8829" x2="110.785" y2="19.408" gradientUnits="userSpaceOnUse">
<stop stop-color="#FF9595"/>
<stop offset="1" stop-color="#ED3C3C"/>
</linearGradient>
<linearGradient id="paint9_linear_564_681" x1="102.558" y1="13.3296" x2="102.558" y2="14.8547" gradientUnits="userSpaceOnUse">
<stop stop-color="#FF9595"/>
<stop offset="1" stop-color="#ED3C3C"/>
</linearGradient>
<linearGradient id="paint10_linear_564_681" x1="0.762546" y1="0" x2="0.762546" y2="1.52509" gradientUnits="userSpaceOnUse">
<stop stop-color="#FF9595"/>
<stop offset="1" stop-color="#ED3C3C"/>
</linearGradient>
<linearGradient id="paint11_linear_564_681" x1="108.116" y1="18.5184" x2="108.116" y2="20.0435" gradientUnits="userSpaceOnUse">
<stop stop-color="#FF9595"/>
<stop offset="1" stop-color="#ED3C3C"/>
</linearGradient>
<linearGradient id="paint12_linear_564_681" x1="103.245" y1="10.6735" x2="103.245" y2="12.1986" gradientUnits="userSpaceOnUse">
<stop stop-color="#FF9595"/>
<stop offset="1" stop-color="#ED3C3C"/>
</linearGradient>
<linearGradient id="paint13_linear_564_681" x1="0.762546" y1="0" x2="0.762546" y2="1.52509" gradientUnits="userSpaceOnUse">
<stop stop-color="#FF9595"/>
<stop offset="1" stop-color="#ED3C3C"/>
</linearGradient>
<linearGradient id="paint14_linear_564_681" x1="105.447" y1="17.8829" x2="105.447" y2="19.408" gradientUnits="userSpaceOnUse">
<stop stop-color="#FF9595"/>
<stop offset="1" stop-color="#ED3C3C"/>
</linearGradient>
<linearGradient id="paint15_linear_564_681" x1="105.056" y1="8.61228" x2="105.056" y2="10.1374" gradientUnits="userSpaceOnUse">
<stop stop-color="#FF9595"/>
<stop offset="1" stop-color="#ED3C3C"/>
</linearGradient>
<linearGradient id="paint16_linear_564_681" x1="0.762546" y1="0" x2="0.762546" y2="1.52509" gradientUnits="userSpaceOnUse">
<stop stop-color="#FF9595"/>
<stop offset="1" stop-color="#ED3C3C"/>
</linearGradient>
<linearGradient id="paint17_linear_564_681" x1="103.413" y1="16.2308" x2="103.413" y2="17.7559" gradientUnits="userSpaceOnUse">
<stop stop-color="#FF9595"/>
<stop offset="1" stop-color="#ED3C3C"/>
</linearGradient>
<linearGradient id="paint18_linear_564_681" x1="108.116" y1="7.96985" x2="108.116" y2="9.49494" gradientUnits="userSpaceOnUse">
<stop stop-color="#FF9595"/>
<stop offset="1" stop-color="#ED3C3C"/>
</linearGradient>
</defs>
</svg>
