<?xml version="1.0" encoding="utf-8"?>
<!-- Generator: Adobe Illustrator 25.4.1, SVG Export Plug-In . SVG Version: 6.00 Build 0)  -->
<svg version="1.1" id="Lager_1" xmlns="http://www.w3.org/2000/svg" xmlns:xlink="http://www.w3.org/1999/xlink" x="0px" y="0px"
	 viewBox="0 0 72.8 73" style="enable-background:new 0 0 72.8 73;" xml:space="preserve">
<style type="text/css">
	.st0{fill:url(#SVGID_1_);filter:url(#Adobe_OpacityMaskFilter);}
	.st1{fill:url(#SVGID_00000066488266643113751090000002948529591001382057_);}
	.st2{fill:url(#SVGID_00000008868120377514341520000004530754605585657262_);}
	.st3{fill:url(#SVGID_00000031922175116569343480000015065051789073238419_);}
	.st4{fill:url(#SVGID_00000101795780918653986580000000643067813653607841_);}
	.st5{fill:url(#SVGID_00000002376511797608988210000010286613886660275095_);}
	.st6{fill:url(#SVGID_00000040567640695420336300000001013321819277806734_);}
	.st7{fill:url(#SVGID_00000140734787994121132540000009091790747032866944_);}
	.st8{fill:url(#SVGID_00000023989990796935371400000015390224882347108519_);}
	.st9{fill:url(#SVGID_00000011012560631904230840000002157542503632864155_);}
	.st10{fill:url(#SVGID_00000042705878113652688550000002494856258723011511_);}
	.st11{fill:url(#SVGID_00000057853829980639509430000008280855153807450288_);}
	.st12{fill:url(#SVGID_00000083801201996559862340000005551585205456809378_);}
	.st13{fill:url(#SVGID_00000045618354063169304920000017424963434254443177_);}
	.st14{fill:url(#SVGID_00000042722433214439068730000004840362250679899034_);}
	.st15{fill:url(#SVGID_00000134938644050003864220000017027916158446358171_);}
	.st16{fill:url(#SVGID_00000031895916289389579830000008222998817076726710_);}
	.st17{fill:url(#SVGID_00000031176439798047206290000011417722212275968168_);}
	.st18{fill:url(#SVGID_00000088836550761283972770000002604856196341084826_);}
	.st19{mask:url(#mask0_504_4195_00000156586739545486087730000004662748640204163743_);}
	.st20{fill:#F49536;}
	
		.st21{fill-rule:evenodd;clip-rule:evenodd;fill:#C4C4C4;filter:url(#Adobe_OpacityMaskFilter_00000115477805689798615490000008757709183739334822_);}
	.st22{fill-rule:evenodd;clip-rule:evenodd;fill:#C4C4C4;}
	.st23{mask:url(#mask1_504_4195_00000083782266400521054020000013696636033512667563_);}
</style>
<defs>
	<filter id="Adobe_OpacityMaskFilter" filterUnits="userSpaceOnUse" x="14.1" y="14.7" width="44.2" height="44.2">
		<feColorMatrix  type="matrix" values="1 0 0 0 0  0 1 0 0 0  0 0 1 0 0  0 0 0 1 0"/>
	</filter>
</defs>
<mask maskUnits="userSpaceOnUse" x="14.1" y="14.7" width="44.2" height="44.2" id="mask0_504_4195_00000156586739545486087730000004662748640204163743_">
	
		<linearGradient id="SVGID_1_" gradientUnits="userSpaceOnUse" x1="49.1375" y1="31.109" x2="49.1375" y2="26.9032" gradientTransform="matrix(1 0 0 -1 0 73.89)">
		<stop  offset="0" style="stop-color:#FF9595"/>
		<stop  offset="1" style="stop-color:#ED3C3C"/>
	</linearGradient>
	<circle class="st0" cx="49.1" cy="44.9" r="2.1"/>
	
		<linearGradient id="SVGID_00000026157517810429342820000000735831526246475183_" gradientUnits="userSpaceOnUse" x1="44.2309" y1="33.9128" x2="44.2309" y2="30.408" gradientTransform="matrix(1 0 0 -1 0 73.89)">
		<stop  offset="0" style="stop-color:#FF9595"/>
		<stop  offset="1" style="stop-color:#ED3C3C"/>
	</linearGradient>
	<circle style="fill:url(#SVGID_00000026157517810429342820000000735831526246475183_);" cx="44.2" cy="41.7" r="1.8"/>
	
		<linearGradient id="SVGID_00000030461627382678513620000013634953807873483942_" gradientUnits="userSpaceOnUse" x1="28.1088" y1="33.9128" x2="28.1088" y2="30.408" gradientTransform="matrix(1 0 0 -1 0 73.89)">
		<stop  offset="0" style="stop-color:#FF9595"/>
		<stop  offset="1" style="stop-color:#ED3C3C"/>
	</linearGradient>
	<circle style="fill:url(#SVGID_00000030461627382678513620000013634953807873483942_);" cx="28.1" cy="41.7" r="1.8"/>
	
		<linearGradient id="SVGID_00000011745103607233508500000011582132376118570423_" gradientUnits="userSpaceOnUse" x1="36.1699" y1="47.9319" x2="36.1699" y2="44.4271" gradientTransform="matrix(1 0 0 -1 0 73.89)">
		<stop  offset="0" style="stop-color:#FF9595"/>
		<stop  offset="1" style="stop-color:#ED3C3C"/>
	</linearGradient>
	<circle style="fill:url(#SVGID_00000011745103607233508500000011582132376118570423_);" cx="36.2" cy="27.7" r="1.8"/>
	
		<linearGradient id="SVGID_00000181079774487377594410000007510940721606872992_" gradientUnits="userSpaceOnUse" x1="40.025" y1="36.0156" x2="40.025" y2="33.2118" gradientTransform="matrix(1 0 0 -1 0 73.89)">
		<stop  offset="0" style="stop-color:#FF9595"/>
		<stop  offset="1" style="stop-color:#ED3C3C"/>
	</linearGradient>
	<circle style="fill:url(#SVGID_00000181079774487377594410000007510940721606872992_);" cx="40" cy="39.3" r="1.4"/>
	
		<linearGradient id="SVGID_00000113345240115754005900000012581551057796862643_" gradientUnits="userSpaceOnUse" x1="32.6651" y1="36.0156" x2="32.6651" y2="33.2118" gradientTransform="matrix(1 0 0 -1 0 73.89)">
		<stop  offset="0" style="stop-color:#FF9595"/>
		<stop  offset="1" style="stop-color:#ED3C3C"/>
	</linearGradient>
	<circle style="fill:url(#SVGID_00000113345240115754005900000012581551057796862643_);" cx="32.7" cy="39.3" r="1.4"/>
	
		<linearGradient id="SVGID_00000090273658500167110080000005705891631528959423_" gradientUnits="userSpaceOnUse" x1="36.17" y1="42.3242" x2="36.17" y2="39.5204" gradientTransform="matrix(1 0 0 -1 0 73.89)">
		<stop  offset="0" style="stop-color:#FF9595"/>
		<stop  offset="1" style="stop-color:#ED3C3C"/>
	</linearGradient>
	<circle style="fill:url(#SVGID_00000090273658500167110080000005705891631528959423_);" cx="36.2" cy="33" r="1.4"/>
	
		<linearGradient id="SVGID_00000116201052168585747350000001344849084466279055_" gradientUnits="userSpaceOnUse" x1="36.1701" y1="38.1184" x2="36.1701" y2="36.0156" gradientTransform="matrix(1 0 0 -1 0 73.89)">
		<stop  offset="0" style="stop-color:#FF9595"/>
		<stop  offset="1" style="stop-color:#ED3C3C"/>
	</linearGradient>
	<circle style="fill:url(#SVGID_00000116201052168585747350000001344849084466279055_);" cx="36.2" cy="36.8" r="1.1"/>
	
		<linearGradient id="SVGID_00000069360640492822548460000014519604753339484304_" gradientUnits="userSpaceOnUse" x1="43.5301" y1="26.5527" x2="43.5301" y2="22.3469" gradientTransform="matrix(1 0 0 -1 0 73.89)">
		<stop  offset="0" style="stop-color:#FF9595"/>
		<stop  offset="1" style="stop-color:#ED3C3C"/>
	</linearGradient>
	<circle style="fill:url(#SVGID_00000069360640492822548460000014519604753339484304_);" cx="43.5" cy="49.4" r="2.1"/>
	
		<linearGradient id="SVGID_00000062152198110757760280000006161003608015094424_" gradientUnits="userSpaceOnUse" x1="-22.9282" y1="833.4611" x2="-22.9282" y2="829.2553" gradientTransform="matrix(-0.4679 0.8838 0.8838 0.4679 -724.6055 -331.8836)">
		<stop  offset="0" style="stop-color:#FF9595"/>
		<stop  offset="1" style="stop-color:#ED3C3C"/>
	</linearGradient>
	<circle style="fill:url(#SVGID_00000062152198110757760280000006161003608015094424_);" cx="20.8" cy="36.9" r="2.1"/>
	
		<linearGradient id="SVGID_00000172414143735155549180000002052134394476242619_" gradientUnits="userSpaceOnUse" x1="200.4963" y1="406.9165" x2="200.4963" y2="402.7108" gradientTransform="matrix(0.4679 0.8838 -0.8838 0.4679 316.9545 -330.6996)">
		<stop  offset="0" style="stop-color:#FF9595"/>
		<stop  offset="1" style="stop-color:#ED3C3C"/>
	</linearGradient>
	<circle style="fill:url(#SVGID_00000172414143735155549180000002052134394476242619_);" cx="51.2" cy="36.9" r="2.1"/>
	
		<linearGradient id="SVGID_00000002378783970213187240000015291485630695634563_" gradientUnits="userSpaceOnUse" x1="36.1698" y1="24.8003" x2="36.1698" y2="20.5945" gradientTransform="matrix(1 0 0 -1 0 73.89)">
		<stop  offset="0" style="stop-color:#FF9595"/>
		<stop  offset="1" style="stop-color:#ED3C3C"/>
	</linearGradient>
	<circle style="fill:url(#SVGID_00000002378783970213187240000015291485630695634563_);" cx="36.2" cy="51.2" r="2.1"/>
	
		<linearGradient id="SVGID_00000075851273655113950160000017563537545314993549_" gradientUnits="userSpaceOnUse" x1="-21.0332" y1="840.7856" x2="-21.0332" y2="836.5799" gradientTransform="matrix(-0.4679 0.8838 0.8838 0.4679 -728.297 -344.3105)">
		<stop  offset="0" style="stop-color:#FF9595"/>
		<stop  offset="1" style="stop-color:#ED3C3C"/>
	</linearGradient>
	<circle style="fill:url(#SVGID_00000075851273655113950160000017563537545314993549_);" cx="22.7" cy="29.6" r="2.1"/>
	
		<linearGradient id="SVGID_00000181799655500061299380000002505466305616620976_" gradientUnits="userSpaceOnUse" x1="200.4963" y1="406.9165" x2="200.4963" y2="402.7108" gradientTransform="matrix(0.4679 0.8838 -0.8838 0.4679 315.0595 -338.0241)">
		<stop  offset="0" style="stop-color:#FF9595"/>
		<stop  offset="1" style="stop-color:#ED3C3C"/>
	</linearGradient>
	<circle style="fill:url(#SVGID_00000181799655500061299380000002505466305616620976_);" cx="49.3" cy="29.6" r="2.1"/>
	
		<linearGradient id="SVGID_00000035531682551505508830000000065195254013269915_" gradientUnits="userSpaceOnUse" x1="28.8099" y1="26.5527" x2="28.8099" y2="22.3469" gradientTransform="matrix(1 0 0 -1 0 73.89)">
		<stop  offset="0" style="stop-color:#FF9595"/>
		<stop  offset="1" style="stop-color:#ED3C3C"/>
	</linearGradient>
	<circle style="fill:url(#SVGID_00000035531682551505508830000000065195254013269915_);" cx="28.8" cy="49.4" r="2.1"/>
	
		<linearGradient id="SVGID_00000051361293399145530340000005865586311870777506_" gradientUnits="userSpaceOnUse" x1="-16.0405" y1="846.4702" x2="-16.0405" y2="842.2644" gradientTransform="matrix(-0.4679 0.8838 0.8838 0.4679 -725.9917 -357.0673)">
		<stop  offset="0" style="stop-color:#FF9595"/>
		<stop  offset="1" style="stop-color:#ED3C3C"/>
	</linearGradient>
	<circle style="fill:url(#SVGID_00000051361293399145530340000005865586311870777506_);" cx="27.7" cy="23.9" r="2.1"/>
	
		<linearGradient id="SVGID_00000152264578237179444080000012479293295590709379_" gradientUnits="userSpaceOnUse" x1="200.4963" y1="406.9165" x2="200.4963" y2="402.7108" gradientTransform="matrix(0.4679 0.8838 -0.8838 0.4679 310.0668 -343.7086)">
		<stop  offset="0" style="stop-color:#FF9595"/>
		<stop  offset="1" style="stop-color:#ED3C3C"/>
	</linearGradient>
	<circle style="fill:url(#SVGID_00000152264578237179444080000012479293295590709379_);" cx="44.3" cy="23.9" r="2.1"/>
	
		<linearGradient id="SVGID_00000088824757925150887840000002090633968902898347_" gradientUnits="userSpaceOnUse" x1="23.202" y1="31.109" x2="23.202" y2="26.9032" gradientTransform="matrix(1 0 0 -1 0 73.89)">
		<stop  offset="0" style="stop-color:#FF9595"/>
		<stop  offset="1" style="stop-color:#ED3C3C"/>
	</linearGradient>
	<circle style="fill:url(#SVGID_00000088824757925150887840000002090633968902898347_);" cx="23.2" cy="44.9" r="2.1"/>
	
		<linearGradient id="SVGID_00000000930486760752566160000015559836737829676984_" gradientUnits="userSpaceOnUse" x1="36.1698" y1="53.89" x2="36.1698" y2="49.6842" gradientTransform="matrix(1 0 0 -1 0 73.89)">
		<stop  offset="0" style="stop-color:#FF9595"/>
		<stop  offset="1" style="stop-color:#ED3C3C"/>
	</linearGradient>
	<circle style="fill:url(#SVGID_00000000930486760752566160000015559836737829676984_);" cx="36.2" cy="22.1" r="2.1"/>
</mask>
<g class="st19">
	<circle class="st20" cx="36.2" cy="36.8" r="22.1"/>
</g>
<defs>
	
		<filter id="Adobe_OpacityMaskFilter_00000176758118403764542790000002103613020277070267_" filterUnits="userSpaceOnUse" x="-1.7" y="-1.5" width="77.1" height="77.1">
		<feColorMatrix  type="matrix" values="1 0 0 0 0  0 1 0 0 0  0 0 1 0 0  0 0 0 1 0"/>
	</filter>
</defs>
<mask maskUnits="userSpaceOnUse" x="-1.7" y="-1.5" width="77.1" height="77.1" id="mask1_504_4195_00000083782266400521054020000013696636033512667563_">
	
		<path style="fill-rule:evenodd;clip-rule:evenodd;fill:#C4C4C4;filter:url(#Adobe_OpacityMaskFilter_00000176758118403764542790000002103613020277070267_);" d="
		M36.9,8.6c2.2,0,4.1-1.8,4.1-4.1c0-2.2-1.8-4.1-4.1-4.1c-2.2,0-4.1,1.8-4.1,4.1C32.8,6.8,34.6,8.6,36.9,8.6c-1.3,0-2.6,0.5-3.6,1.5
		c-1,1-1.5,2.2-1.5,3.6h5.1h5.1c0-1.3-0.5-2.6-1.5-3.6C39.5,9.1,38.2,8.6,36.9,8.6z"/>
	<path class="st22" d="M36.8,64.6c-2.2,0-4.1,1.8-4.1,4.1c0,2.2,1.8,4.1,4.1,4.1c2.2,0,4.1-1.8,4.1-4.1
		C40.9,66.5,39.1,64.6,36.8,64.6c1.3,0,2.6-0.5,3.6-1.5c1-1,1.5-2.2,1.5-3.6h-5.1h-5.1c0,1.3,0.5,2.6,1.5,3.6
		C34.2,64.1,35.5,64.6,36.8,64.6z"/>
	<path class="st22" d="M50.9,13.1c1.9,1.1,4.4,0.4,5.5-1.5c1.1-1.9,0.5-4.4-1.5-5.5C53,5,50.5,5.6,49.4,7.6
		C48.3,9.5,48.9,12,50.9,13.1c-1.2-0.7-2.6-0.9-3.9-0.5c-1.3,0.3-2.4,1.2-3.1,2.4l4.4,2.5l4.4,2.5c0.7-1.2,0.9-2.5,0.5-3.8
		C52.9,14.9,52,13.8,50.9,13.1z"/>
	<path class="st22" d="M22.8,61.2c-1.9-1.1-4.4-0.4-5.5,1.5c-1.1,1.9-0.5,4.4,1.5,5.5c1.9,1.1,4.4,0.5,5.5-1.5
		C25.4,64.8,24.8,62.3,22.8,61.2c1.2,0.7,2.6,0.9,3.9,0.5c1.3-0.3,2.4-1.2,3.1-2.4l-4.4-2.5L21,54.2c-0.7,1.2-0.9,2.5-0.5,3.8
		C20.8,59.4,21.7,60.5,22.8,61.2z"/>
	<path class="st22" d="M60.9,50c-1.1,1.9-0.5,4.4,1.5,5.5c1.9,1.1,4.4,0.5,5.5-1.5c1.1-1.9,0.5-4.4-1.5-5.5
		C64.5,47.4,62,48.1,60.9,50z M61.4,46.2c-0.3-1.3-1.2-2.4-2.4-3.1l-2.5,4.4L54,51.9c1.2,0.7,2.5,0.9,3.8,0.5
		c1.3-0.3,2.4-1.2,3.1-2.4C61.6,48.9,61.8,47.5,61.4,46.2z"/>
	<path class="st22" d="M12.8,22.2c1.1-1.9,0.5-4.4-1.5-5.5c-1.9-1.1-4.4-0.5-5.5,1.5c-1.1,1.9-0.5,4.4,1.5,5.5S11.7,24.2,12.8,22.2z
		 M12.3,26.1c0.3,1.3,1.2,2.4,2.4,3.1l2.5-4.4l2.5-4.4c-1.2-0.7-2.5-0.9-3.8-0.5c-1.3,0.3-2.4,1.2-3.1,2.4
		C12.1,23.4,11.9,24.8,12.3,26.1z"/>
	<path class="st22" d="M60,22.1c1.1,1.9,3.6,2.6,5.5,1.5c1.9-1.1,2.6-3.6,1.5-5.5c-1.1-1.9-3.6-2.6-5.5-1.5
		C59.5,17.7,58.9,20.2,60,22.1z M56.9,19.8c-1.3-0.3-2.7-0.2-3.8,0.5l2.5,4.4l2.5,4.4c1.2-0.7,2-1.8,2.4-3.1
		c0.3-1.3,0.2-2.7-0.5-3.8C59.3,21,58.2,20.1,56.9,19.8z"/>
	<path class="st22" d="M11.7,50.1c-1.1-1.9-3.6-2.6-5.5-1.5c-1.9,1.1-2.6,3.6-1.5,5.5c1.1,1.9,3.6,2.6,5.5,1.5
		C12.1,54.5,12.8,52.1,11.7,50.1z M14.8,52.5c1.3,0.3,2.7,0.2,3.8-0.5l-2.5-4.4l-2.5-4.4c-1.2,0.7-2,1.8-2.4,3.1
		c-0.3,1.3-0.2,2.7,0.5,3.8C12.3,51.3,13.5,52.1,14.8,52.5z"/>
	<path class="st22" d="M50.9,60.2c-1.9,1.1-2.6,3.6-1.5,5.5c1.1,1.9,3.6,2.6,5.5,1.5c1.9-1.1,2.6-3.6,1.5-5.5
		C55.3,59.7,52.8,59,50.9,60.2z M53.2,57.1c0.3-1.3,0.2-2.7-0.5-3.8l-4.4,2.5L44,58.3c0.7,1.2,1.8,2,3.1,2.4
		c1.3,0.3,2.7,0.2,3.8-0.5C52,59.5,52.9,58.4,53.2,57.1z"/>
	<path class="st22" d="M22.8,12.1c1.9-1.1,2.6-3.6,1.5-5.5c-1.1-1.9-3.6-2.6-5.5-1.5c-1.9,1.1-2.6,3.6-1.5,5.5
		C18.4,12.5,20.9,13.2,22.8,12.1z M20.5,15.2c-0.3,1.3-0.2,2.7,0.5,3.8l4.4-2.5l4.4-2.5c-0.7-1.2-1.8-2-3.1-2.4
		c-1.3-0.3-2.7-0.2-3.8,0.5C21.7,12.8,20.8,13.9,20.5,15.2z"/>
	<path class="st22" d="M64.2,36c0,2.2,1.8,4.1,4.1,4.1c2.2,0,4.1-1.8,4.1-4.1c0-2.2-1.8-4.1-4.1-4.1C66,31.9,64.2,33.7,64.2,36
		c0-1.3-0.5-2.6-1.5-3.6c-1-1-2.2-1.5-3.6-1.5V36v5.1c1.3,0,2.6-0.5,3.6-1.5C63.7,38.6,64.2,37.3,64.2,36z"/>
	<path class="st22" d="M8.5,36.3c0-2.2-1.8-4.1-4.1-4.1c-2.2,0-4.1,1.8-4.1,4.1c0,2.2,1.8,4.1,4.1,4.1C6.6,40.3,8.5,38.5,8.5,36.3
		c0,1.3,0.5,2.6,1.5,3.6c1,1,2.2,1.5,3.6,1.5v-5.1v-5.1c-1.3,0-2.6,0.5-3.6,1.5C9,33.6,8.5,34.9,8.5,36.3z"/>
</mask>
<g class="st23">
	<circle class="st20" cx="36.9" cy="37" r="38.5"/>
</g>
</svg>
