<svg width="101" height="107" viewBox="0 0 101 107" fill="none" xmlns="http://www.w3.org/2000/svg">
<path d="M3.94828 0H0.5V3.66379H3.94828V0Z" fill="#611400"/>
<path d="M7.39655 0H3.94828V3.66379H7.39655V0Z" fill="#611400"/>
<path d="M10.8448 0H7.39655V3.66379H10.8448V0Z" fill="#611400"/>
<path d="M14.2931 0H10.8448V3.66379H14.2931V0Z" fill="#611400"/>
<path d="M17.7414 0H14.2931V3.66379H17.7414V0Z" fill="#611400"/>
<path d="M21.1897 0H17.7414V3.66379H21.1897V0Z" fill="#611400"/>
<path d="M24.6379 0H21.1897V3.66379H24.6379V0Z" fill="#611400"/>
<path d="M31.5345 0H28.0862V3.66379H31.5345V0Z" fill="#611400"/>
<path d="M34.9828 0H31.5345V3.66379H34.9828V0Z" fill="#611400"/>
<path d="M41.8793 0H38.431V3.66379H41.8793V0Z" fill="#611400"/>
<path d="M45.3276 0H41.8793V3.66379H45.3276V0Z" fill="#611400"/>
<path d="M48.7759 0H45.3276V3.66379H48.7759V0Z" fill="#611400"/>
<path d="M52.2241 0H48.7759V3.66379H52.2241V0Z" fill="#611400"/>
<path d="M55.6724 0H52.2241V3.66379H55.6724V0Z" fill="#611400"/>
<path d="M62.569 0H59.1207V3.66379H62.569V0Z" fill="#611400"/>
<path d="M66.0172 0H62.569V3.66379H66.0172V0Z" fill="#611400"/>
<path d="M69.4655 0H66.0172V3.66379H69.4655V0Z" fill="#611400"/>
<path d="M72.9138 0H69.4655V3.66379H72.9138V0Z" fill="#611400"/>
<path d="M79.8103 0H76.3621V3.66379H79.8103V0Z" fill="#611400"/>
<path d="M83.2586 0H79.8103V3.66379H83.2586V0Z" fill="#611400"/>
<path d="M86.7069 0H83.2586V3.66379H86.7069V0Z" fill="#611400"/>
<path d="M90.1552 0H86.7069V3.66379H90.1552V0Z" fill="#611400"/>
<path d="M93.6034 0H90.1552V3.66379H93.6034V0Z" fill="#611400"/>
<path d="M97.0517 0H93.6034V3.66379H97.0517V0Z" fill="#611400"/>
<path d="M100.5 0H97.0517V3.66379H100.5V0Z" fill="#611400"/>
<path d="M3.94828 3.66379H0.5V7.32759H3.94828V3.66379Z" fill="#611400"/>
<path d="M24.6379 3.66379H21.1897V7.32759H24.6379V3.66379Z" fill="#611400"/>
<path d="M45.3276 3.66379H41.8793V7.32759H45.3276V3.66379Z" fill="#611400"/>
<path d="M55.6724 3.66379H52.2241V7.32759H55.6724V3.66379Z" fill="#611400"/>
<path d="M62.569 3.66379H59.1207V7.32759H62.569V3.66379Z" fill="#611400"/>
<path d="M66.0172 3.66379H62.569V7.32759H66.0172V3.66379Z" fill="#611400"/>
<path d="M79.8103 3.66379H76.3621V7.32759H79.8103V3.66379Z" fill="#611400"/>
<path d="M100.5 3.66379H97.0517V7.32759H100.5V3.66379Z" fill="#611400"/>
<path d="M3.94828 7.32759H0.5V10.9914H3.94828V7.32759Z" fill="#611400"/>
<path d="M10.8448 7.32759H7.39655V10.9914H10.8448V7.32759Z" fill="#611400"/>
<path d="M14.2931 7.32759H10.8448V10.9914H14.2931V7.32759Z" fill="#611400"/>
<path d="M17.7414 7.32759H14.2931V10.9914H17.7414V7.32759Z" fill="#611400"/>
<path d="M24.6379 7.32759H21.1897V10.9914H24.6379V7.32759Z" fill="#611400"/>
<path d="M34.9828 7.32759H31.5345V10.9914H34.9828V7.32759Z" fill="#611400"/>
<path d="M38.431 7.32759H34.9828V10.9914H38.431V7.32759Z" fill="#611400"/>
<path d="M48.7759 7.32759H45.3276V10.9914H48.7759V7.32759Z" fill="#611400"/>
<path d="M59.1207 7.32759H55.6724V10.9914H59.1207V7.32759Z" fill="#611400"/>
<path d="M62.569 7.32759H59.1207V10.9914H62.569V7.32759Z" fill="#611400"/>
<path d="M66.0172 7.32759H62.569V10.9914H66.0172V7.32759Z" fill="#611400"/>
<path d="M79.8103 7.32759H76.3621V10.9914H79.8103V7.32759Z" fill="#611400"/>
<path d="M86.7069 7.32759H83.2586V10.9914H86.7069V7.32759Z" fill="#611400"/>
<path d="M90.1552 7.32759H86.7069V10.9914H90.1552V7.32759Z" fill="#611400"/>
<path d="M93.6034 7.32759H90.1552V10.9914H93.6034V7.32759Z" fill="#611400"/>
<path d="M100.5 7.32759H97.0517V10.9914H100.5V7.32759Z" fill="#611400"/>
<path d="M3.94828 10.9914H0.5V14.6552H3.94828V10.9914Z" fill="#611400"/>
<path d="M10.8448 10.9914H7.39655V14.6552H10.8448V10.9914Z" fill="#611400"/>
<path d="M14.2931 10.9914H10.8448V14.6552H14.2931V10.9914Z" fill="#611400"/>
<path d="M17.7414 10.9914H14.2931V14.6552H17.7414V10.9914Z" fill="#611400"/>
<path d="M24.6379 10.9914H21.1897V14.6552H24.6379V10.9914Z" fill="#611400"/>
<path d="M34.9828 10.9914H31.5345V14.6552H34.9828V10.9914Z" fill="#611400"/>
<path d="M38.431 10.9914H34.9828V14.6552H38.431V10.9914Z" fill="#611400"/>
<path d="M45.3276 10.9914H41.8793V14.6552H45.3276V10.9914Z" fill="#611400"/>
<path d="M52.2241 10.9914H48.7759V14.6552H52.2241V10.9914Z" fill="#611400"/>
<path d="M55.6724 10.9914H52.2241V14.6552H55.6724V10.9914Z" fill="#611400"/>
<path d="M72.9138 10.9914H69.4655V14.6552H72.9138V10.9914Z" fill="#611400"/>
<path d="M79.8103 10.9914H76.3621V14.6552H79.8103V10.9914Z" fill="#611400"/>
<path d="M86.7069 10.9914H83.2586V14.6552H86.7069V10.9914Z" fill="#611400"/>
<path d="M90.1552 10.9914H86.7069V14.6552H90.1552V10.9914Z" fill="#611400"/>
<path d="M93.6034 10.9914H90.1552V14.6552H93.6034V10.9914Z" fill="#611400"/>
<path d="M100.5 10.9914H97.0517V14.6552H100.5V10.9914Z" fill="#611400"/>
<path d="M3.94828 14.6552H0.5V18.319H3.94828V14.6552Z" fill="#611400"/>
<path d="M10.8448 14.6552H7.39655V18.319H10.8448V14.6552Z" fill="#611400"/>
<path d="M14.2931 14.6552H10.8448V18.319H14.2931V14.6552Z" fill="#611400"/>
<path d="M17.7414 14.6552H14.2931V18.319H17.7414V14.6552Z" fill="#611400"/>
<path d="M24.6379 14.6552H21.1897V18.319H24.6379V14.6552Z" fill="#611400"/>
<path d="M38.431 14.6552H34.9828V18.319H38.431V14.6552Z" fill="#611400"/>
<path d="M41.8793 14.6552H38.431V18.319H41.8793V14.6552Z" fill="#611400"/>
<path d="M45.3276 14.6552H41.8793V18.319H45.3276V14.6552Z" fill="#611400"/>
<path d="M52.2241 14.6552H48.7759V18.319H52.2241V14.6552Z" fill="#611400"/>
<path d="M55.6724 14.6552H52.2241V18.319H55.6724V14.6552Z" fill="#611400"/>
<path d="M66.0172 14.6552H62.569V18.319H66.0172V14.6552Z" fill="#611400"/>
<path d="M72.9138 14.6552H69.4655V18.319H72.9138V14.6552Z" fill="#611400"/>
<path d="M79.8103 14.6552H76.3621V18.319H79.8103V14.6552Z" fill="#611400"/>
<path d="M86.7069 14.6552H83.2586V18.319H86.7069V14.6552Z" fill="#611400"/>
<path d="M90.1552 14.6552H86.7069V18.319H90.1552V14.6552Z" fill="#611400"/>
<path d="M93.6034 14.6552H90.1552V18.319H93.6034V14.6552Z" fill="#611400"/>
<path d="M100.5 14.6552H97.0517V18.319H100.5V14.6552Z" fill="#611400"/>
<path d="M3.94828 18.319H0.5V21.9828H3.94828V18.319Z" fill="#611400"/>
<path d="M24.6379 18.319H21.1897V21.9828H24.6379V18.319Z" fill="#611400"/>
<path d="M38.431 18.319H34.9828V21.9828H38.431V18.319Z" fill="#611400"/>
<path d="M41.8793 18.319H38.431V21.9828H41.8793V18.319Z" fill="#611400"/>
<path d="M48.7759 18.319H45.3276V21.9828H48.7759V18.319Z" fill="#611400"/>
<path d="M66.0172 18.319H62.569V21.9828H66.0172V18.319Z" fill="#611400"/>
<path d="M69.4655 18.319H66.0172V21.9828H69.4655V18.319Z" fill="#611400"/>
<path d="M79.8103 18.319H76.3621V21.9828H79.8103V18.319Z" fill="#611400"/>
<path d="M100.5 18.319H97.0517V21.9828H100.5V18.319Z" fill="#611400"/>
<path d="M3.94828 21.9828H0.5V25.6466H3.94828V21.9828Z" fill="#611400"/>
<path d="M7.39655 21.9828H3.94828V25.6466H7.39655V21.9828Z" fill="#611400"/>
<path d="M10.8448 21.9828H7.39655V25.6466H10.8448V21.9828Z" fill="#611400"/>
<path d="M14.2931 21.9828H10.8448V25.6466H14.2931V21.9828Z" fill="#611400"/>
<path d="M17.7414 21.9828H14.2931V25.6466H17.7414V21.9828Z" fill="#611400"/>
<path d="M21.1897 21.9828H17.7414V25.6466H21.1897V21.9828Z" fill="#611400"/>
<path d="M24.6379 21.9828H21.1897V25.6466H24.6379V21.9828Z" fill="#611400"/>
<path d="M31.5345 21.9828H28.0862V25.6466H31.5345V21.9828Z" fill="#611400"/>
<path d="M38.431 21.9828H34.9828V25.6466H38.431V21.9828Z" fill="#611400"/>
<path d="M45.3276 21.9828H41.8793V25.6466H45.3276V21.9828Z" fill="#611400"/>
<path d="M52.2241 21.9828H48.7759V25.6466H52.2241V21.9828Z" fill="#611400"/>
<path d="M59.1207 21.9828H55.6724V25.6466H59.1207V21.9828Z" fill="#611400"/>
<path d="M66.0172 21.9828H62.569V25.6466H66.0172V21.9828Z" fill="#611400"/>
<path d="M72.9138 21.9828H69.4655V25.6466H72.9138V21.9828Z" fill="#611400"/>
<path d="M79.8103 21.9828H76.3621V25.6466H79.8103V21.9828Z" fill="#611400"/>
<path d="M83.2586 21.9828H79.8103V25.6466H83.2586V21.9828Z" fill="#611400"/>
<path d="M86.7069 21.9828H83.2586V25.6466H86.7069V21.9828Z" fill="#611400"/>
<path d="M90.1552 21.9828H86.7069V25.6466H90.1552V21.9828Z" fill="#611400"/>
<path d="M93.6034 21.9828H90.1552V25.6466H93.6034V21.9828Z" fill="#611400"/>
<path d="M97.0517 21.9828H93.6034V25.6466H97.0517V21.9828Z" fill="#611400"/>
<path d="M100.5 21.9828H97.0517V25.6466H100.5V21.9828Z" fill="#611400"/>
<path d="M34.9828 25.6466H31.5345V29.3103H34.9828V25.6466Z" fill="#611400"/>
<path d="M38.431 25.6466H34.9828V29.3103H38.431V25.6466Z" fill="#611400"/>
<path d="M48.7759 25.6466H45.3276V29.3103H48.7759V25.6466Z" fill="#611400"/>
<path d="M59.1207 25.6466H55.6724V29.3103H59.1207V25.6466Z" fill="#611400"/>
<path d="M62.569 25.6466H59.1207V29.3103H62.569V25.6466Z" fill="#611400"/>
<path d="M7.39655 29.3103H3.94828V32.9741H7.39655V29.3103Z" fill="#611400"/>
<path d="M10.8448 29.3103H7.39655V32.9741H10.8448V29.3103Z" fill="#611400"/>
<path d="M14.2931 29.3103H10.8448V32.9741H14.2931V29.3103Z" fill="#611400"/>
<path d="M24.6379 29.3103H21.1897V32.9741H24.6379V29.3103Z" fill="#611400"/>
<path d="M28.0862 29.3103H24.6379V32.9741H28.0862V29.3103Z" fill="#611400"/>
<path d="M31.5345 29.3103H28.0862V32.9741H31.5345V29.3103Z" fill="#611400"/>
<path d="M34.9828 29.3103H31.5345V32.9741H34.9828V29.3103Z" fill="#611400"/>
<path d="M38.431 29.3103H34.9828V32.9741H38.431V29.3103Z" fill="#611400"/>
<path d="M41.8793 29.3103H38.431V32.9741H41.8793V29.3103Z" fill="#611400"/>
<path d="M45.3276 29.3103H41.8793V32.9741H45.3276V29.3103Z" fill="#611400"/>
<path d="M52.2241 29.3103H48.7759V32.9741H52.2241V29.3103Z" fill="#611400"/>
<path d="M55.6724 29.3103H52.2241V32.9741H55.6724V29.3103Z" fill="#611400"/>
<path d="M66.0172 29.3103H62.569V32.9741H66.0172V29.3103Z" fill="#611400"/>
<path d="M69.4655 29.3103H66.0172V32.9741H69.4655V29.3103Z" fill="#611400"/>
<path d="M76.3621 29.3103H72.9138V32.9741H76.3621V29.3103Z" fill="#611400"/>
<path d="M100.5 29.3103H97.0517V32.9741H100.5V29.3103Z" fill="#611400"/>
<path d="M7.39655 32.9741H3.94828V36.6379H7.39655V32.9741Z" fill="#611400"/>
<path d="M28.0862 32.9741H24.6379V36.6379H28.0862V32.9741Z" fill="#611400"/>
<path d="M31.5345 32.9741H28.0862V36.6379H31.5345V32.9741Z" fill="#611400"/>
<path d="M34.9828 32.9741H31.5345V36.6379H34.9828V32.9741Z" fill="#611400"/>
<path d="M41.8793 32.9741H38.431V36.6379H41.8793V32.9741Z" fill="#611400"/>
<path d="M45.3276 32.9741H41.8793V36.6379H45.3276V32.9741Z" fill="#611400"/>
<path d="M48.7759 32.9741H45.3276V36.6379H48.7759V32.9741Z" fill="#611400"/>
<path d="M52.2241 32.9741H48.7759V36.6379H52.2241V32.9741Z" fill="#611400"/>
<path d="M59.1207 32.9741H55.6724V36.6379H59.1207V32.9741Z" fill="#611400"/>
<path d="M62.569 32.9741H59.1207V36.6379H62.569V32.9741Z" fill="#611400"/>
<path d="M69.4655 32.9741H66.0172V36.6379H69.4655V32.9741Z" fill="#611400"/>
<path d="M76.3621 32.9741H72.9138V36.6379H76.3621V32.9741Z" fill="#611400"/>
<path d="M79.8103 32.9741H76.3621V36.6379H79.8103V32.9741Z" fill="#611400"/>
<path d="M86.7069 32.9741H83.2586V36.6379H86.7069V32.9741Z" fill="#611400"/>
<path d="M90.1552 32.9741H86.7069V36.6379H90.1552V32.9741Z" fill="#611400"/>
<path d="M93.6034 32.9741H90.1552V36.6379H93.6034V32.9741Z" fill="#611400"/>
<path d="M97.0517 32.9741H93.6034V36.6379H97.0517V32.9741Z" fill="#611400"/>
<path d="M3.94828 36.6379H0.5V40.3017H3.94828V36.6379Z" fill="#611400"/>
<path d="M7.39655 36.6379H3.94828V40.3017H7.39655V36.6379Z" fill="#611400"/>
<path d="M14.2931 36.6379H10.8448V40.3017H14.2931V36.6379Z" fill="#611400"/>
<path d="M21.1897 36.6379H17.7414V40.3017H21.1897V36.6379Z" fill="#611400"/>
<path d="M24.6379 36.6379H21.1897V40.3017H24.6379V36.6379Z" fill="#611400"/>
<path d="M28.0862 36.6379H24.6379V40.3017H28.0862V36.6379Z" fill="#611400"/>
<path d="M41.8793 36.6379H38.431V40.3017H41.8793V36.6379Z" fill="#611400"/>
<path d="M52.2241 36.6379H48.7759V40.3017H52.2241V36.6379Z" fill="#611400"/>
<path d="M69.4655 36.6379H66.0172V40.3017H69.4655V36.6379Z" fill="#611400"/>
<path d="M76.3621 36.6379H72.9138V40.3017H76.3621V36.6379Z" fill="#611400"/>
<path d="M83.2586 36.6379H79.8103V40.3017H83.2586V36.6379Z" fill="#611400"/>
<path d="M86.7069 36.6379H83.2586V40.3017H86.7069V36.6379Z" fill="#611400"/>
<path d="M93.6034 36.6379H90.1552V40.3017H93.6034V36.6379Z" fill="#611400"/>
<path d="M97.0517 36.6379H93.6034V40.3017H97.0517V36.6379Z" fill="#611400"/>
<path d="M7.39655 40.3017H3.94828V43.9655H7.39655V40.3017Z" fill="#611400"/>
<path d="M17.7414 40.3017H14.2931V43.9655H17.7414V40.3017Z" fill="#611400"/>
<path d="M21.1897 40.3017H17.7414V43.9655H21.1897V40.3017Z" fill="#611400"/>
<path d="M31.5345 40.3017H28.0862V43.9655H31.5345V40.3017Z" fill="#611400"/>
<path d="M34.9828 40.3017H31.5345V43.9655H34.9828V40.3017Z" fill="#611400"/>
<path d="M38.431 40.3017H34.9828V43.9655H38.431V40.3017Z" fill="#611400"/>
<path d="M45.3276 40.3017H41.8793V43.9655H45.3276V40.3017Z" fill="#611400"/>
<path d="M52.2241 40.3017H48.7759V43.9655H52.2241V40.3017Z" fill="#611400"/>
<path d="M59.1207 40.3017H55.6724V43.9655H59.1207V40.3017Z" fill="#611400"/>
<path d="M66.0172 40.3017H62.569V43.9655H66.0172V40.3017Z" fill="#611400"/>
<path d="M76.3621 40.3017H72.9138V43.9655H76.3621V40.3017Z" fill="#611400"/>
<path d="M86.7069 40.3017H83.2586V43.9655H86.7069V40.3017Z" fill="#611400"/>
<path d="M93.6034 40.3017H90.1552V43.9655H93.6034V40.3017Z" fill="#611400"/>
<path d="M97.0517 40.3017H93.6034V43.9655H97.0517V40.3017Z" fill="#611400"/>
<path d="M7.39655 43.9655H3.94828V47.6293H7.39655V43.9655Z" fill="#611400"/>
<path d="M14.2931 43.9655H10.8448V47.6293H14.2931V43.9655Z" fill="#611400"/>
<path d="M21.1897 43.9655H17.7414V47.6293H21.1897V43.9655Z" fill="#611400"/>
<path d="M24.6379 43.9655H21.1897V47.6293H24.6379V43.9655Z" fill="#611400"/>
<path d="M28.0862 43.9655H24.6379V47.6293H28.0862V43.9655Z" fill="#611400"/>
<path d="M31.5345 43.9655H28.0862V47.6293H31.5345V43.9655Z" fill="#611400"/>
<path d="M62.569 43.9655H59.1207V47.6293H62.569V43.9655Z" fill="#611400"/>
<path d="M66.0172 43.9655H62.569V47.6293H66.0172V43.9655Z" fill="#611400"/>
<path d="M90.1552 43.9655H86.7069V47.6293H90.1552V43.9655Z" fill="#611400"/>
<path d="M7.39655 47.6293H3.94828V51.2931H7.39655V47.6293Z" fill="#611400"/>
<path d="M10.8448 47.6293H7.39655V51.2931H10.8448V47.6293Z" fill="#611400"/>
<path d="M34.9828 47.6293H31.5345V51.2931H34.9828V47.6293Z" fill="#611400"/>
<path d="M38.431 47.6293H34.9828V51.2931H38.431V47.6293Z" fill="#611400"/>
<path d="M41.8793 47.6293H38.431V51.2931H41.8793V47.6293Z" fill="#611400"/>
<path d="M45.3276 47.6293H41.8793V51.2931H45.3276V47.6293Z" fill="#611400"/>
<path d="M62.569 47.6293H59.1207V51.2931H62.569V47.6293Z" fill="#611400"/>
<path d="M69.4655 47.6293H66.0172V51.2931H69.4655V47.6293Z" fill="#611400"/>
<path d="M86.7069 47.6293H83.2586V51.2931H86.7069V47.6293Z" fill="#611400"/>
<path d="M93.6034 47.6293H90.1552V51.2931H93.6034V47.6293Z" fill="#611400"/>
<path d="M7.39655 51.2931H3.94828V54.9569H7.39655V51.2931Z" fill="#611400"/>
<path d="M24.6379 51.2931H21.1897V54.9569H24.6379V51.2931Z" fill="#611400"/>
<path d="M28.0862 51.2931H24.6379V54.9569H28.0862V51.2931Z" fill="#611400"/>
<path d="M38.431 51.2931H34.9828V54.9569H38.431V51.2931Z" fill="#611400"/>
<path d="M62.569 51.2931H59.1207V54.9569H62.569V51.2931Z" fill="#611400"/>
<path d="M72.9138 51.2931H69.4655V54.9569H72.9138V51.2931Z" fill="#611400"/>
<path d="M76.3621 51.2931H72.9138V54.9569H76.3621V51.2931Z" fill="#611400"/>
<path d="M83.2586 51.2931H79.8103V54.9569H83.2586V51.2931Z" fill="#611400"/>
<path d="M86.7069 51.2931H83.2586V54.9569H86.7069V51.2931Z" fill="#611400"/>
<path d="M90.1552 51.2931H86.7069V54.9569H90.1552V51.2931Z" fill="#611400"/>
<path d="M93.6034 51.2931H90.1552V54.9569H93.6034V51.2931Z" fill="#611400"/>
<path d="M100.5 51.2931H97.0517V54.9569H100.5V51.2931Z" fill="#611400"/>
<path d="M3.94828 54.9569H0.5V58.6207H3.94828V54.9569Z" fill="#611400"/>
<path d="M10.8448 54.9569H7.39655V58.6207H10.8448V54.9569Z" fill="#611400"/>
<path d="M17.7414 54.9569H14.2931V58.6207H17.7414V54.9569Z" fill="#611400"/>
<path d="M21.1897 54.9569H17.7414V58.6207H21.1897V54.9569Z" fill="#611400"/>
<path d="M28.0862 54.9569H24.6379V58.6207H28.0862V54.9569Z" fill="#611400"/>
<path d="M38.431 54.9569H34.9828V58.6207H38.431V54.9569Z" fill="#611400"/>
<path d="M45.3276 54.9569H41.8793V58.6207H45.3276V54.9569Z" fill="#611400"/>
<path d="M55.6724 54.9569H52.2241V58.6207H55.6724V54.9569Z" fill="#611400"/>
<path d="M66.0172 54.9569H62.569V58.6207H66.0172V54.9569Z" fill="#611400"/>
<path d="M72.9138 54.9569H69.4655V58.6207H72.9138V54.9569Z" fill="#611400"/>
<path d="M83.2586 54.9569H79.8103V58.6207H83.2586V54.9569Z" fill="#611400"/>
<path d="M93.6034 54.9569H90.1552V58.6207H93.6034V54.9569Z" fill="#611400"/>
<path d="M100.5 54.9569H97.0517V58.6207H100.5V54.9569Z" fill="#611400"/>
<path d="M3.94828 58.6207H0.5V62.2845H3.94828V58.6207Z" fill="#611400"/>
<path d="M7.39655 58.6207H3.94828V62.2845H7.39655V58.6207Z" fill="#611400"/>
<path d="M14.2931 58.6207H10.8448V62.2845H14.2931V58.6207Z" fill="#611400"/>
<path d="M17.7414 58.6207H14.2931V62.2845H17.7414V58.6207Z" fill="#611400"/>
<path d="M24.6379 58.6207H21.1897V62.2845H24.6379V58.6207Z" fill="#611400"/>
<path d="M28.0862 58.6207H24.6379V62.2845H28.0862V58.6207Z" fill="#611400"/>
<path d="M31.5345 58.6207H28.0862V62.2845H31.5345V58.6207Z" fill="#611400"/>
<path d="M34.9828 58.6207H31.5345V62.2845H34.9828V58.6207Z" fill="#611400"/>
<path d="M38.431 58.6207H34.9828V62.2845H38.431V58.6207Z" fill="#611400"/>
<path d="M45.3276 58.6207H41.8793V62.2845H45.3276V58.6207Z" fill="#611400"/>
<path d="M48.7759 58.6207H45.3276V62.2845H48.7759V58.6207Z" fill="#611400"/>
<path d="M59.1207 58.6207H55.6724V62.2845H59.1207V58.6207Z" fill="#611400"/>
<path d="M83.2586 58.6207H79.8103V62.2845H83.2586V58.6207Z" fill="#611400"/>
<path d="M93.6034 58.6207H90.1552V62.2845H93.6034V58.6207Z" fill="#611400"/>
<path d="M97.0517 58.6207H93.6034V62.2845H97.0517V58.6207Z" fill="#611400"/>
<path d="M3.94828 62.2845H0.5V65.9483H3.94828V62.2845Z" fill="#611400"/>
<path d="M7.39655 62.2845H3.94828V65.9483H7.39655V62.2845Z" fill="#611400"/>
<path d="M14.2931 62.2845H10.8448V65.9483H14.2931V62.2845Z" fill="#611400"/>
<path d="M17.7414 62.2845H14.2931V65.9483H17.7414V62.2845Z" fill="#611400"/>
<path d="M21.1897 62.2845H17.7414V65.9483H21.1897V62.2845Z" fill="#611400"/>
<path d="M31.5345 62.2845H28.0862V65.9483H31.5345V62.2845Z" fill="#611400"/>
<path d="M62.569 62.2845H59.1207V65.9483H62.569V62.2845Z" fill="#611400"/>
<path d="M69.4655 62.2845H66.0172V65.9483H69.4655V62.2845Z" fill="#611400"/>
<path d="M86.7069 62.2845H83.2586V65.9483H86.7069V62.2845Z" fill="#611400"/>
<path d="M90.1552 62.2845H86.7069V65.9483H90.1552V62.2845Z" fill="#611400"/>
<path d="M93.6034 62.2845H90.1552V65.9483H93.6034V62.2845Z" fill="#611400"/>
<path d="M97.0517 62.2845H93.6034V65.9483H97.0517V62.2845Z" fill="#611400"/>
<path d="M3.94828 65.9483H0.5V69.6121H3.94828V65.9483Z" fill="#611400"/>
<path d="M7.39655 65.9483H3.94828V69.6121H7.39655V65.9483Z" fill="#611400"/>
<path d="M17.7414 65.9483H14.2931V69.6121H17.7414V65.9483Z" fill="#611400"/>
<path d="M24.6379 65.9483H21.1897V69.6121H24.6379V65.9483Z" fill="#611400"/>
<path d="M34.9828 65.9483H31.5345V69.6121H34.9828V65.9483Z" fill="#611400"/>
<path d="M41.8793 65.9483H38.431V69.6121H41.8793V65.9483Z" fill="#611400"/>
<path d="M48.7759 65.9483H45.3276V69.6121H48.7759V65.9483Z" fill="#611400"/>
<path d="M59.1207 65.9483H55.6724V69.6121H59.1207V65.9483Z" fill="#611400"/>
<path d="M62.569 65.9483H59.1207V69.6121H62.569V65.9483Z" fill="#611400"/>
<path d="M69.4655 65.9483H66.0172V69.6121H69.4655V65.9483Z" fill="#611400"/>
<path d="M76.3621 65.9483H72.9138V69.6121H76.3621V65.9483Z" fill="#611400"/>
<path d="M79.8103 65.9483H76.3621V69.6121H79.8103V65.9483Z" fill="#611400"/>
<path d="M86.7069 65.9483H83.2586V69.6121H86.7069V65.9483Z" fill="#611400"/>
<path d="M97.0517 65.9483H93.6034V69.6121H97.0517V65.9483Z" fill="#611400"/>
<path d="M17.7414 69.6121H14.2931V73.2759H17.7414V69.6121Z" fill="#611400"/>
<path d="M28.0862 69.6121H24.6379V73.2759H28.0862V69.6121Z" fill="#611400"/>
<path d="M34.9828 69.6121H31.5345V73.2759H34.9828V69.6121Z" fill="#611400"/>
<path d="M45.3276 69.6121H41.8793V73.2759H45.3276V69.6121Z" fill="#611400"/>
<path d="M48.7759 69.6121H45.3276V73.2759H48.7759V69.6121Z" fill="#611400"/>
<path d="M62.569 69.6121H59.1207V73.2759H62.569V69.6121Z" fill="#611400"/>
<path d="M66.0172 69.6121H62.569V73.2759H66.0172V69.6121Z" fill="#611400"/>
<path d="M79.8103 69.6121H76.3621V73.2759H79.8103V69.6121Z" fill="#611400"/>
<path d="M83.2586 69.6121H79.8103V73.2759H83.2586V69.6121Z" fill="#611400"/>
<path d="M86.7069 69.6121H83.2586V73.2759H86.7069V69.6121Z" fill="#611400"/>
<path d="M90.1552 69.6121H86.7069V73.2759H90.1552V69.6121Z" fill="#611400"/>
<path d="M100.5 69.6121H97.0517V73.2759H100.5V69.6121Z" fill="#611400"/>
<path d="M14.2931 73.2759H10.8448V76.9397H14.2931V73.2759Z" fill="#611400"/>
<path d="M24.6379 73.2759H21.1897V76.9397H24.6379V73.2759Z" fill="#611400"/>
<path d="M31.5345 73.2759H28.0862V76.9397H31.5345V73.2759Z" fill="#611400"/>
<path d="M38.431 73.2759H34.9828V76.9397H38.431V73.2759Z" fill="#611400"/>
<path d="M48.7759 73.2759H45.3276V76.9397H48.7759V73.2759Z" fill="#611400"/>
<path d="M55.6724 73.2759H52.2241V76.9397H55.6724V73.2759Z" fill="#611400"/>
<path d="M66.0172 73.2759H62.569V76.9397H66.0172V73.2759Z" fill="#611400"/>
<path d="M69.4655 73.2759H66.0172V76.9397H69.4655V73.2759Z" fill="#611400"/>
<path d="M72.9138 73.2759H69.4655V76.9397H72.9138V73.2759Z" fill="#611400"/>
<path d="M76.3621 73.2759H72.9138V76.9397H76.3621V73.2759Z" fill="#611400"/>
<path d="M79.8103 73.2759H76.3621V76.9397H79.8103V73.2759Z" fill="#611400"/>
<path d="M83.2586 73.2759H79.8103V76.9397H83.2586V73.2759Z" fill="#611400"/>
<path d="M86.7069 73.2759H83.2586V76.9397H86.7069V73.2759Z" fill="#611400"/>
<path d="M93.6034 73.2759H90.1552V76.9397H93.6034V73.2759Z" fill="#611400"/>
<path d="M31.5345 76.9397H28.0862V80.6035H31.5345V76.9397Z" fill="#611400"/>
<path d="M48.7759 76.9397H45.3276V80.6035H48.7759V76.9397Z" fill="#611400"/>
<path d="M66.0172 76.9397H62.569V80.6035H66.0172V76.9397Z" fill="#611400"/>
<path d="M69.4655 76.9397H66.0172V80.6035H69.4655V76.9397Z" fill="#611400"/>
<path d="M72.9138 76.9397H69.4655V80.6035H72.9138V76.9397Z" fill="#611400"/>
<path d="M86.7069 76.9397H83.2586V80.6035H86.7069V76.9397Z" fill="#611400"/>
<path d="M90.1552 76.9397H86.7069V80.6035H90.1552V76.9397Z" fill="#611400"/>
<path d="M93.6034 76.9397H90.1552V80.6035H93.6034V76.9397Z" fill="#611400"/>
<path d="M97.0517 76.9397H93.6034V80.6035H97.0517V76.9397Z" fill="#611400"/>
<path d="M100.5 76.9397H97.0517V80.6035H100.5V76.9397Z" fill="#611400"/>
<path d="M3.94828 80.6035H0.5V84.2672H3.94828V80.6035Z" fill="#611400"/>
<path d="M7.39655 80.6035H3.94828V84.2672H7.39655V80.6035Z" fill="#611400"/>
<path d="M10.8448 80.6035H7.39655V84.2672H10.8448V80.6035Z" fill="#611400"/>
<path d="M14.2931 80.6035H10.8448V84.2672H14.2931V80.6035Z" fill="#611400"/>
<path d="M17.7414 80.6035H14.2931V84.2672H17.7414V80.6035Z" fill="#611400"/>
<path d="M21.1897 80.6035H17.7414V84.2672H21.1897V80.6035Z" fill="#611400"/>
<path d="M24.6379 80.6035H21.1897V84.2672H24.6379V80.6035Z" fill="#611400"/>
<path d="M31.5345 80.6035H28.0862V84.2672H31.5345V80.6035Z" fill="#611400"/>
<path d="M38.431 80.6035H34.9828V84.2672H38.431V80.6035Z" fill="#611400"/>
<path d="M41.8793 80.6035H38.431V84.2672H41.8793V80.6035Z" fill="#611400"/>
<path d="M45.3276 80.6035H41.8793V84.2672H45.3276V80.6035Z" fill="#611400"/>
<path d="M48.7759 80.6035H45.3276V84.2672H48.7759V80.6035Z" fill="#611400"/>
<path d="M62.569 80.6035H59.1207V84.2672H62.569V80.6035Z" fill="#611400"/>
<path d="M66.0172 80.6035H62.569V84.2672H66.0172V80.6035Z" fill="#611400"/>
<path d="M72.9138 80.6035H69.4655V84.2672H72.9138V80.6035Z" fill="#611400"/>
<path d="M79.8103 80.6035H76.3621V84.2672H79.8103V80.6035Z" fill="#611400"/>
<path d="M86.7069 80.6035H83.2586V84.2672H86.7069V80.6035Z" fill="#611400"/>
<path d="M93.6034 80.6035H90.1552V84.2672H93.6034V80.6035Z" fill="#611400"/>
<path d="M3.94828 84.2672H0.5V87.931H3.94828V84.2672Z" fill="#611400"/>
<path d="M24.6379 84.2672H21.1897V87.931H24.6379V84.2672Z" fill="#611400"/>
<path d="M34.9828 84.2672H31.5345V87.931H34.9828V84.2672Z" fill="#611400"/>
<path d="M38.431 84.2672H34.9828V87.931H38.431V84.2672Z" fill="#611400"/>
<path d="M45.3276 84.2672H41.8793V87.931H45.3276V84.2672Z" fill="#611400"/>
<path d="M48.7759 84.2672H45.3276V87.931H48.7759V84.2672Z" fill="#611400"/>
<path d="M66.0172 84.2672H62.569V87.931H66.0172V84.2672Z" fill="#611400"/>
<path d="M69.4655 84.2672H66.0172V87.931H69.4655V84.2672Z" fill="#611400"/>
<path d="M72.9138 84.2672H69.4655V87.931H72.9138V84.2672Z" fill="#611400"/>
<path d="M86.7069 84.2672H83.2586V87.931H86.7069V84.2672Z" fill="#611400"/>
<path d="M93.6034 84.2672H90.1552V87.931H93.6034V84.2672Z" fill="#611400"/>
<path d="M97.0517 84.2672H93.6034V87.931H97.0517V84.2672Z" fill="#611400"/>
<path d="M3.94828 87.931H0.5V91.5948H3.94828V87.931Z" fill="#611400"/>
<path d="M10.8448 87.931H7.39655V91.5948H10.8448V87.931Z" fill="#611400"/>
<path d="M14.2931 87.931H10.8448V91.5948H14.2931V87.931Z" fill="#611400"/>
<path d="M17.7414 87.931H14.2931V91.5948H17.7414V87.931Z" fill="#611400"/>
<path d="M24.6379 87.931H21.1897V91.5948H24.6379V87.931Z" fill="#611400"/>
<path d="M34.9828 87.931H31.5345V91.5948H34.9828V87.931Z" fill="#611400"/>
<path d="M38.431 87.931H34.9828V91.5948H38.431V87.931Z" fill="#611400"/>
<path d="M48.7759 87.931H45.3276V91.5948H48.7759V87.931Z" fill="#611400"/>
<path d="M52.2241 87.931H48.7759V91.5948H52.2241V87.931Z" fill="#611400"/>
<path d="M55.6724 87.931H52.2241V91.5948H55.6724V87.931Z" fill="#611400"/>
<path d="M62.569 87.931H59.1207V91.5948H62.569V87.931Z" fill="#611400"/>
<path d="M72.9138 87.931H69.4655V91.5948H72.9138V87.931Z" fill="#611400"/>
<path d="M76.3621 87.931H72.9138V91.5948H76.3621V87.931Z" fill="#611400"/>
<path d="M79.8103 87.931H76.3621V91.5948H79.8103V87.931Z" fill="#611400"/>
<path d="M83.2586 87.931H79.8103V91.5948H83.2586V87.931Z" fill="#611400"/>
<path d="M86.7069 87.931H83.2586V91.5948H86.7069V87.931Z" fill="#611400"/>
<path d="M93.6034 87.931H90.1552V91.5948H93.6034V87.931Z" fill="#611400"/>
<path d="M97.0517 87.931H93.6034V91.5948H97.0517V87.931Z" fill="#611400"/>
<path d="M100.5 87.931H97.0517V91.5948H100.5V87.931Z" fill="#611400"/>
<path d="M3.94828 91.5948H0.5V95.2586H3.94828V91.5948Z" fill="#611400"/>
<path d="M10.8448 91.5948H7.39655V95.2586H10.8448V91.5948Z" fill="#611400"/>
<path d="M14.2931 91.5948H10.8448V95.2586H14.2931V91.5948Z" fill="#611400"/>
<path d="M17.7414 91.5948H14.2931V95.2586H17.7414V91.5948Z" fill="#611400"/>
<path d="M24.6379 91.5948H21.1897V95.2586H24.6379V91.5948Z" fill="#611400"/>
<path d="M31.5345 91.5948H28.0862V95.2586H31.5345V91.5948Z" fill="#611400"/>
<path d="M38.431 91.5948H34.9828V95.2586H38.431V91.5948Z" fill="#611400"/>
<path d="M45.3276 91.5948H41.8793V95.2586H45.3276V91.5948Z" fill="#611400"/>
<path d="M55.6724 91.5948H52.2241V95.2586H55.6724V91.5948Z" fill="#611400"/>
<path d="M69.4655 91.5948H66.0172V95.2586H69.4655V91.5948Z" fill="#611400"/>
<path d="M72.9138 91.5948H69.4655V95.2586H72.9138V91.5948Z" fill="#611400"/>
<path d="M79.8103 91.5948H76.3621V95.2586H79.8103V91.5948Z" fill="#611400"/>
<path d="M86.7069 91.5948H83.2586V95.2586H86.7069V91.5948Z" fill="#611400"/>
<path d="M97.0517 91.5948H93.6034V95.2586H97.0517V91.5948Z" fill="#611400"/>
<path d="M3.94828 95.2586H0.5V98.9224H3.94828V95.2586Z" fill="#611400"/>
<path d="M10.8448 95.2586H7.39655V98.9224H10.8448V95.2586Z" fill="#611400"/>
<path d="M14.2931 95.2586H10.8448V98.9224H14.2931V95.2586Z" fill="#611400"/>
<path d="M17.7414 95.2586H14.2931V98.9224H17.7414V95.2586Z" fill="#611400"/>
<path d="M24.6379 95.2586H21.1897V98.9224H24.6379V95.2586Z" fill="#611400"/>
<path d="M31.5345 95.2586H28.0862V98.9224H31.5345V95.2586Z" fill="#611400"/>
<path d="M34.9828 95.2586H31.5345V98.9224H34.9828V95.2586Z" fill="#611400"/>
<path d="M38.431 95.2586H34.9828V98.9224H38.431V95.2586Z" fill="#611400"/>
<path d="M55.6724 95.2586H52.2241V98.9224H55.6724V95.2586Z" fill="#611400"/>
<path d="M59.1207 95.2586H55.6724V98.9224H59.1207V95.2586Z" fill="#611400"/>
<path d="M62.569 95.2586H59.1207V98.9224H62.569V95.2586Z" fill="#611400"/>
<path d="M66.0172 95.2586H62.569V98.9224H66.0172V95.2586Z" fill="#611400"/>
<path d="M72.9138 95.2586H69.4655V98.9224H72.9138V95.2586Z" fill="#611400"/>
<path d="M76.3621 95.2586H72.9138V98.9224H76.3621V95.2586Z" fill="#611400"/>
<path d="M79.8103 95.2586H76.3621V98.9224H79.8103V95.2586Z" fill="#611400"/>
<path d="M97.0517 95.2586H93.6034V98.9224H97.0517V95.2586Z" fill="#611400"/>
<path d="M100.5 95.2586H97.0517V98.9224H100.5V95.2586Z" fill="#611400"/>
<path d="M3.94828 98.9224H0.5V102.586H3.94828V98.9224Z" fill="#611400"/>
<path d="M24.6379 98.9224H21.1897V102.586H24.6379V98.9224Z" fill="#611400"/>
<path d="M31.5345 98.9224H28.0862V102.586H31.5345V98.9224Z" fill="#611400"/>
<path d="M34.9828 98.9224H31.5345V102.586H34.9828V98.9224Z" fill="#611400"/>
<path d="M41.8793 98.9224H38.431V102.586H41.8793V98.9224Z" fill="#611400"/>
<path d="M45.3276 98.9224H41.8793V102.586H45.3276V98.9224Z" fill="#611400"/>
<path d="M59.1207 98.9224H55.6724V102.586H59.1207V98.9224Z" fill="#611400"/>
<path d="M76.3621 98.9224H72.9138V102.586H76.3621V98.9224Z" fill="#611400"/>
<path d="M86.7069 98.9224H83.2586V102.586H86.7069V98.9224Z" fill="#611400"/>
<path d="M90.1552 98.9224H86.7069V102.586H90.1552V98.9224Z" fill="#611400"/>
<path d="M93.6034 98.9224H90.1552V102.586H93.6034V98.9224Z" fill="#611400"/>
<path d="M3.94828 102.586H0.5V106.25H3.94828V102.586Z" fill="#611400"/>
<path d="M7.39655 102.586H3.94828V106.25H7.39655V102.586Z" fill="#611400"/>
<path d="M10.8448 102.586H7.39655V106.25H10.8448V102.586Z" fill="#611400"/>
<path d="M14.2931 102.586H10.8448V106.25H14.2931V102.586Z" fill="#611400"/>
<path d="M17.7414 102.586H14.2931V106.25H17.7414V102.586Z" fill="#611400"/>
<path d="M21.1897 102.586H17.7414V106.25H21.1897V102.586Z" fill="#611400"/>
<path d="M24.6379 102.586H21.1897V106.25H24.6379V102.586Z" fill="#611400"/>
<path d="M48.7759 102.586H45.3276V106.25H48.7759V102.586Z" fill="#611400"/>
<path d="M55.6724 102.586H52.2241V106.25H55.6724V102.586Z" fill="#611400"/>
<path d="M59.1207 102.586H55.6724V106.25H59.1207V102.586Z" fill="#611400"/>
<path d="M62.569 102.586H59.1207V106.25H62.569V102.586Z" fill="#611400"/>
<path d="M66.0172 102.586H62.569V106.25H66.0172V102.586Z" fill="#611400"/>
<path d="M76.3621 102.586H72.9138V106.25H76.3621V102.586Z" fill="#611400"/>
<path d="M83.2586 102.586H79.8103V106.25H83.2586V102.586Z" fill="#611400"/>
<path d="M97.0517 102.586H93.6034V106.25H97.0517V102.586Z" fill="#611400"/>
</svg>
