<svg width="33" height="34" viewBox="0 0 33 34" fill="none" xmlns="http://www.w3.org/2000/svg">
<path d="M16.4956 8.63422C11.8106 8.63422 8.02963 12.4152 8.02963 17.1002C8.02963 21.7851 11.8106 25.5661 16.4956 25.5661C21.1805 25.5661 24.9615 21.7851 24.9615 17.1002C24.9615 12.4152 21.1805 8.63422 16.4956 8.63422ZM16.4956 22.6024C13.4658 22.6024 10.9933 20.1299 10.9933 17.1002C10.9933 14.0704 13.4658 11.5979 16.4956 11.5979C19.5253 11.5979 21.9978 14.0704 21.9978 17.1002C21.9978 20.1299 19.5253 22.6024 16.4956 22.6024ZM25.3082 6.31445C24.2144 6.31445 23.3311 7.19778 23.3311 8.29162C23.3311 9.38546 24.2144 10.2688 25.3082 10.2688C26.4021 10.2688 27.2854 9.38959 27.2854 8.29162C27.2857 8.03188 27.2348 7.77463 27.1356 7.5346C27.0363 7.29457 26.8907 7.07648 26.707 6.89282C26.5234 6.70916 26.3053 6.56353 26.0653 6.46428C25.8252 6.36504 25.568 6.31412 25.3082 6.31445ZM32.9982 17.1002C32.9982 14.8217 33.0188 12.5638 32.8908 10.2894C32.7629 7.6477 32.1602 5.30316 30.2285 3.37139C28.2926 1.43549 25.9522 0.836971 23.3104 0.709012C21.0319 0.581053 18.7741 0.601692 16.4997 0.601692C14.2212 0.601692 11.9633 0.581053 9.68897 0.709012C7.04723 0.836971 4.70269 1.43962 2.77092 3.37139C0.835026 5.30728 0.236507 7.6477 0.108548 10.2894C-0.0194109 12.5679 0.00122776 14.8258 0.00122776 17.1002C0.00122776 19.3745 -0.0194109 21.6365 0.108548 23.9109C0.236507 26.5526 0.839153 28.8972 2.77092 30.8289C4.70682 32.7648 7.04723 33.3633 9.68897 33.4913C11.9675 33.6193 14.2253 33.5986 16.4997 33.5986C18.7782 33.5986 21.036 33.6193 23.3104 33.4913C25.9522 33.3633 28.2967 32.7607 30.2285 30.8289C32.1644 28.893 32.7629 26.5526 32.8908 23.9109C33.0229 21.6365 32.9982 19.3787 32.9982 17.1002ZM29.3658 26.8333C29.0644 27.5845 28.7012 28.1459 28.1192 28.7238C27.5372 29.3058 26.98 29.669 26.2287 29.9704C24.0575 30.8331 18.902 30.6391 16.4956 30.6391C14.0891 30.6391 8.92947 30.8331 6.75829 29.9745C6.00705 29.6732 5.44568 29.3099 4.8678 28.7279C4.28579 28.1459 3.92255 27.5887 3.62123 26.8374C2.76267 24.6621 2.95667 19.5066 2.95667 17.1002C2.95667 14.6937 2.76267 9.53406 3.62123 7.36288C3.92255 6.61164 4.28579 6.05027 4.8678 5.47239C5.44981 4.89451 6.00705 4.52715 6.75829 4.22582C8.92947 3.36726 14.0891 3.56126 16.4956 3.56126C18.902 3.56126 24.0617 3.36726 26.2328 4.22582C26.9841 4.52715 27.5455 4.89038 28.1233 5.47239C28.7053 6.0544 29.0686 6.61164 29.3699 7.36288C30.2285 9.53406 30.0345 14.6937 30.0345 17.1002C30.0345 19.5066 30.2285 24.6621 29.3658 26.8333Z" fill="#611400"/>
</svg>
