<svg width="36" height="37" viewBox="0 0 36 37" fill="none" xmlns="http://www.w3.org/2000/svg">
<path d="M17.9925 0.100098C8.0715 0.100098 0 8.1731 0 18.0941C0 28.0241 8.0715 36.1001 17.9925 36.1001C27.9225 36.1001 36 28.0226 36 18.0941C36 8.1731 27.9225 0.100098 17.9925 0.100098ZM8.862 24.7061C10.9221 24.075 13.0644 23.7525 15.219 23.7491C18.84 23.7491 22.4145 24.6671 25.557 26.4041C25.7445 26.5061 25.914 26.8421 25.992 27.2621C26.067 27.6821 26.037 28.1126 25.914 28.3361C25.856 28.4424 25.7775 28.5362 25.6831 28.6119C25.5886 28.6877 25.4801 28.7439 25.3637 28.7774C25.2473 28.8109 25.1255 28.8209 25.0052 28.807C24.8849 28.793 24.7686 28.7553 24.663 28.6961C22.3548 27.4299 19.8158 26.6401 17.1966 26.3737C14.5774 26.1072 11.9314 26.3696 9.4155 27.1451C9.3 27.1824 9.17823 27.1964 9.05727 27.1863C8.93631 27.1761 8.81859 27.1419 8.71096 27.0858C8.60332 27.0297 8.50793 26.9527 8.43034 26.8594C8.35275 26.766 8.2945 26.6582 8.259 26.5421C8.0985 26.0171 8.43 24.8471 8.862 24.7061ZM8.0775 18.0761C10.4048 17.4438 12.8058 17.1235 15.2175 17.1236C19.5585 17.1236 23.868 18.1736 27.6825 20.1626C27.951 20.2976 28.1475 20.5286 28.2375 20.8106C28.283 20.953 28.2995 21.1031 28.2861 21.252C28.2727 21.4009 28.2297 21.5456 28.1595 21.6776C27.819 22.3436 27.42 22.7921 27.1695 22.7921C26.9868 22.7913 26.8068 22.7471 26.6445 22.6631C23.1183 20.8221 19.1968 19.8676 15.219 19.8821C13.0064 19.8777 10.8034 20.1728 8.67 20.7596C8.52768 20.7985 8.37909 20.809 8.23272 20.7905C8.08634 20.772 7.94505 20.7248 7.8169 20.6517C7.68876 20.5785 7.57627 20.4809 7.48586 20.3643C7.39546 20.2477 7.3289 20.1144 7.29 19.9721C7.122 19.3391 7.5075 18.2321 8.0775 18.0761ZM7.875 13.7471C7.70617 13.7904 7.53042 13.7999 7.35791 13.7749C7.1854 13.75 7.01954 13.6911 6.8699 13.6017C6.72026 13.5123 6.58981 13.3942 6.48607 13.2541C6.38233 13.114 6.30737 12.9548 6.2655 12.7856C6.081 12.0386 6.5475 11.1716 7.2255 11.0006C9.84076 10.3564 12.5241 10.0296 15.2175 10.0271C20.3925 10.0271 25.3515 11.1911 29.9535 13.4876C30.2697 13.6448 30.5105 13.9212 30.623 14.2559C30.7355 14.5906 30.7105 14.9563 30.5535 15.2726C30.339 15.7046 29.874 16.1696 29.361 16.1696C29.1598 16.1689 28.9612 16.1243 28.779 16.0391C24.5709 13.928 19.9254 12.8357 15.2175 12.8501C12.765 12.8501 10.2945 13.1516 7.875 13.7471Z" fill="#611400"/>
</svg>
